<?xml version="1.0" standalone="no"?>
<!DOCTYPE svg PUBLIC "-//W3C//DTD SVG 20010904//EN"
 "http://www.w3.org/TR/2001/REC-SVG-20010904/DTD/svg10.dtd">
<svg version="1.0" xmlns="http://www.w3.org/2000/svg"
 width="744.000000pt" height="744.000000pt" viewBox="0 0 744.000000 744.000000"
 preserveAspectRatio="xMidYMid meet">
<metadata>
Created by potrace 1.14, written by Peter Selinger 2001-2017
</metadata>
<g transform="translate(0.000000,744.000000) scale(0.100000,-0.100000)"
fill="#000000" stroke="none">
<path d="M2377 6874 c-1 -1 -26 -5 -56 -8 -29 -4 -56 -8 -60 -10 -3 -2 -23 -7
-44 -10 -75 -12 -198 -79 -267 -146 -9 -8 -46 -41 -83 -74 -36 -32 -79 -70
-95 -85 -15 -14 -57 -50 -92 -80 -74 -62 -261 -250 -395 -396 -110 -119 -141
-153 -215 -231 -103 -109 -215 -256 -329 -429 -62 -93 -120 -179 -130 -190
-10 -11 -44 -69 -76 -130 -32 -60 -64 -120 -72 -133 -46 -74 -236 -465 -276
-567 -87 -222 -144 -417 -172 -590 -19 -118 -19 -628 0 -720 55 -263 241 -483
530 -627 69 -35 194 -83 238 -92 44 -10 69 -15 85 -20 46 -13 128 -20 227 -20
87 0 124 5 180 23 187 61 432 219 535 346 14 17 14 18 -7 6 -13 -6 -23 -9 -23
-6 0 9 143 147 180 175 19 14 42 33 52 43 10 9 22 17 27 17 5 0 12 6 14 13 3
6 6 3 6 -8 1 -11 -19 -79 -44 -150 -303 -865 -377 -1314 -290 -1758 39 -199
119 -359 210 -423 36 -26 101 -40 107 -23 3 8 15 6 42 -5 48 -20 66 -20 66 -1
0 11 5 12 24 5 17 -6 26 -5 28 2 3 8 11 7 27 -2 23 -12 23 -11 17 14 -7 27 2
34 21 15 17 -17 22 11 9 51 -6 19 -17 35 -25 35 -8 0 -19 19 -27 43 -7 24 -20
52 -29 62 -9 10 -14 24 -10 29 3 6 1 11 -4 11 -6 0 -11 5 -11 11 0 5 4 8 9 5
5 -4 3 18 -5 46 -8 29 -22 78 -30 108 -8 30 -17 56 -20 59 -5 5 1 -53 10 -96
3 -13 3 -23 0 -23 -6 0 -25 48 -30 79 -3 14 -7 27 -9 31 -2 4 -7 29 -11 56 -3
27 -8 58 -10 69 -10 53 -5 322 6 350 13 30 13 30 19 6 3 -13 4 -53 0 -90 -3
-36 -4 -68 -2 -70 8 -10 12 8 18 74 8 92 32 222 45 243 10 15 10 14 6 -3 -3
-11 -8 -38 -11 -60 -3 -23 -7 -50 -9 -62 -14 -70 -28 -313 -19 -313 4 0 8 12
9 28 1 26 10 96 18 138 2 12 7 45 11 75 4 30 8 56 10 59 2 3 6 26 10 50 7 47
8 50 18 90 4 14 9 36 11 50 9 50 58 228 97 355 23 72 41 131 40 133 -1 1 5 15
13 30 8 15 24 54 36 87 35 98 93 229 106 240 7 6 19 37 28 69 8 33 19 62 23
65 4 3 10 20 11 36 2 17 23 70 48 119 24 49 44 93 44 98 0 7 110 275 146 353
7 17 22 53 33 81 11 28 28 71 39 95 11 24 32 76 48 114 60 147 76 154 20 8
-56 -147 -107 -277 -116 -298 -12 -29 -141 -363 -157 -409 -8 -21 -20 -51 -29
-67 -8 -16 -13 -29 -10 -29 2 0 -11 -36 -30 -81 -19 -44 -34 -85 -34 -90 0 -5
-8 -28 -19 -52 -10 -23 -24 -58 -31 -77 -7 -19 -16 -44 -21 -55 -5 -11 -29
-74 -54 -140 -25 -66 -50 -129 -55 -140 -10 -22 -60 -169 -66 -194 -4 -20 -42
-156 -54 -196 -8 -26 -38 -189 -54 -290 -9 -56 -18 -180 -18 -251 0 -70 19
-184 31 -184 3 0 6 71 5 158 0 86 2 161 5 166 5 12 14 96 15 154 0 23 5 42 9
42 5 0 7 11 3 24 -3 12 -3 26 1 30 4 4 8 14 9 22 2 9 7 37 13 63 6 25 13 57
15 71 3 14 5 25 6 25 2 0 4 11 13 50 36 154 126 424 187 560 5 11 21 47 35 80
50 113 107 226 112 222 2 -3 -1 -25 -8 -48 -7 -24 -13 -46 -14 -49 -2 -8 -36
-114 -42 -130 -3 -8 -7 -21 -9 -28 -1 -8 -6 -21 -10 -30 -4 -9 -8 -21 -9 -27
-2 -5 -15 -46 -30 -90 -15 -44 -28 -84 -30 -90 -1 -5 -5 -17 -8 -25 -10 -26
-30 -95 -30 -100 1 -3 -3 -13 -9 -23 -5 -10 -11 -26 -13 -35 -3 -9 -25 -78
-50 -152 -57 -169 -88 -286 -101 -385 -3 -22 -8 -51 -10 -65 -8 -45 -16 -362
-9 -397 3 -18 10 -33 16 -33 6 0 8 4 5 8 -2 4 -1 14 5 22 7 12 9 12 9 -3 0
-10 5 -15 10 -12 6 4 7 11 4 17 -6 10 -9 29 -13 91 0 9 -6 17 -12 17 -5 0 -8
-3 -5 -8 2 -4 1 -23 -4 -42 -12 -52 -3 209 10 283 21 120 17 103 90 367 34
124 64 232 66 240 13 56 35 127 47 154 17 34 121 299 188 474 23 61 47 112 51
112 5 0 6 4 3 10 -3 5 1 19 9 31 8 12 12 27 10 34 -3 7 0 16 5 20 6 3 9 11 6
16 -4 5 -1 9 5 9 6 0 9 4 5 10 -3 5 3 18 13 28 21 21 35 62 21 62 -5 0 -9 5
-9 11 0 5 3 8 8 6 4 -3 8 11 9 32 1 20 23 90 49 156 25 66 50 133 55 150 12
41 44 106 63 130 15 18 15 17 1 -15 -36 -85 -107 -275 -112 -299 -3 -14 -8
-46 -12 -71 -4 -27 -12 -44 -19 -43 -13 3 -17 -13 -4 -19 5 -1 -54 -169 -130
-373 -76 -203 -147 -399 -159 -435 -12 -36 -24 -72 -27 -80 -7 -19 -7 -19 -16
-60 -4 -19 -17 -66 -28 -104 -11 -38 -21 -76 -23 -85 -2 -9 -15 -56 -30 -106
-15 -49 -28 -97 -29 -105 -2 -8 -10 -40 -19 -70 -9 -30 -18 -68 -21 -85 -3
-16 -8 -41 -11 -55 -3 -14 -8 -68 -11 -120 -7 -109 -7 -98 -5 -130 2 -25 2
-25 11 -3 5 12 12 57 15 100 10 146 16 186 39 262 13 42 32 103 42 136 10 33
19 65 20 70 3 10 165 547 205 680 27 86 81 228 119 309 66 143 90 194 113 251
13 33 28 69 32 80 10 23 8 19 23 72 13 45 65 176 105 263 13 30 34 76 45 103
12 26 23 47 25 47 5 0 -26 -85 -85 -240 -14 -36 -85 -225 -158 -420 -73 -195
-138 -368 -145 -385 -7 -16 -29 -75 -49 -130 -21 -55 -43 -113 -49 -130 -7
-16 -12 -32 -13 -35 0 -3 -6 -18 -13 -35 -47 -111 -162 -523 -165 -591 -2 -34
1 -50 8 -48 10 4 49 107 61 161 3 12 10 35 16 49 7 20 7 29 -2 34 -8 6 -8 9 0
14 6 4 11 4 11 -1 1 -4 17 44 36 107 19 63 37 122 41 130 3 8 7 20 8 25 10 43
114 248 135 265 3 3 21 41 39 85 19 44 41 96 49 115 9 19 16 37 17 40 0 5 86
212 105 255 27 62 51 117 74 175 15 36 31 74 36 85 35 74 231 552 248 605 27
82 54 197 67 290 3 19 8 45 10 56 3 12 8 50 11 83 10 100 15 114 38 105 8 -3
17 -1 21 5 6 10 -8 16 -28 12 -5 -1 -6 3 -2 8 3 6 35 9 71 7 38 -2 62 0 57 5
-5 5 -32 10 -60 10 -28 1 -57 5 -63 9 -23 14 -1 27 42 24 156 -12 170 -12 160
-2 -5 5 -36 11 -68 14 -125 10 -147 16 -137 39 3 9 18 15 39 15 19 0 34 4 34
9 0 4 -8 8 -17 8 -49 0 -63 4 -63 18 0 19 13 21 100 10 111 -13 139 -15 144
-6 8 13 -20 33 -48 35 -13 0 -22 5 -19 9 3 5 12 6 20 3 8 -4 38 -9 66 -12 29
-4 57 -8 62 -11 6 -2 -1 5 -14 16 -13 12 -22 23 -20 26 3 2 27 5 54 6 28 0 57
3 66 5 27 7 10 43 -25 54 l-31 10 35 -6 c19 -3 46 -7 60 -9 14 -2 41 -6 60
-10 25 -4 31 -3 20 4 -8 5 -31 12 -50 14 -19 3 -36 6 -37 7 -4 3 -20 7 -34 9
-5 0 -8 5 -4 11 3 5 12 7 20 3 8 -3 15 0 15 6 0 6 -14 14 -30 18 -42 8 -52 27
-11 21 17 -2 31 -1 31 3 0 9 -38 19 -77 19 -18 0 -33 5 -33 11 0 8 14 9 48 4
107 -16 127 -14 53 5 -79 21 -86 25 -86 43 0 13 -61 31 -140 41 -28 3 -59 8
-70 10 -33 6 -205 23 -262 25 -11 1 -43 18 -70 39 -79 62 -137 85 -223 87 -41
0 -96 -3 -121 -8 -43 -8 -48 -12 -53 -42 -9 -45 -23 -54 -97 -60 -35 -2 -95
-7 -134 -10 -104 -8 -140 -12 -250 -30 -55 -9 -113 -19 -130 -20 -16 -2 -39
-6 -50 -8 -20 -5 -87 -15 -135 -22 -14 -2 -68 -10 -120 -18 -52 -9 -115 -14
-140 -13 -107 6 -192 -58 -229 -175 -12 -38 -14 -47 -26 -117 -9 -54 -9 -213
-1 -272 14 -88 17 -103 36 -158 27 -77 65 -127 112 -150 55 -28 84 -20 201 52
124 76 232 128 346 166 83 27 213 48 259 42 26 -4 29 -20 5 -29 -10 -3 -44
-31 -75 -61 -32 -31 -61 -53 -64 -49 -4 4 -2 7 4 7 7 0 12 7 12 15 0 12 -6 10
-23 -7 -13 -13 -52 -48 -87 -78 -35 -30 -71 -62 -80 -70 -9 -8 -40 -36 -70
-61 -30 -26 -71 -61 -90 -79 -19 -18 -55 -48 -80 -69 -25 -20 -52 -43 -60 -52
-8 -9 -51 -47 -95 -85 -44 -38 -82 -71 -85 -74 -3 -3 -39 -34 -80 -70 -76 -66
-134 -117 -154 -135 -13 -12 -178 -156 -221 -193 -120 -105 -298 -204 -388
-217 l-47 -7 -17 38 c-14 31 -17 70 -18 194 0 146 7 250 20 270 3 5 8 30 11
56 3 26 11 66 19 88 7 23 23 75 35 116 70 232 203 521 388 840 236 410 458
707 723 970 131 130 162 156 324 279 176 132 273 191 515 312 264 132 386 204
411 245 40 65 43 216 8 329 -19 59 -32 79 -83 129 -120 116 -261 200 -401 236
-54 14 -104 18 -218 17 -81 0 -148 -2 -150 -3z m-877 -747 c0 -2 -10 -12 -22
-23 l-23 -19 19 23 c18 21 26 27 26 19z m-50 -47 c0 -5 -5 -10 -11 -10 -5 0
-7 5 -4 10 3 6 8 10 11 10 2 0 4 -4 4 -10z m376 -15 c-9 -9 -16 -13 -16 -8 0
5 5 14 12 21 6 6 14 10 16 7 2 -2 -3 -11 -12 -20z m-63 -19 c-10 -14 -24 -28
-32 -31 -7 -3 0 10 15 28 33 39 45 41 17 3z m-363 -21 c-18 -19 -36 -33 -38
-30 -6 6 50 63 62 64 6 1 -5 -15 -24 -34z m369 -14 c-13 -11 -26 -18 -28 -16
-6 7 24 34 38 35 7 0 3 -8 -10 -19z m-49 -45 c0 -3 -4 -8 -10 -11 -5 -3 -10
-1 -10 4 0 6 5 11 10 11 6 0 10 -2 10 -4z m-130 -92 c0 -6 -16 -22 -45 -44
-15 -12 -14 -8 5 17 23 29 40 41 40 27z m144 -49 c-7 -16 -24 -21 -24 -6 0 8
7 13 27 20 1 1 0 -6 -3 -14z m-178 -33 c-16 -15 -25 -20 -21 -12 13 25 38 50
44 45 3 -3 -8 -18 -23 -33z m-46 -5 c0 -2 -12 -14 -26 -28 -25 -22 -26 -23
-15 -2 9 18 19 26 39 32 1 1 2 0 2 -2z m183 -24 c-10 -29 -47 -75 -108 -133
-95 -91 -125 -123 -125 -132 0 -5 -5 -14 -10 -21 -6 -7 -61 -90 -123 -184 -62
-95 -148 -228 -192 -295 -183 -283 -270 -444 -363 -676 -36 -88 -51 -117 -55
-101 -3 11 4 42 15 67 12 26 21 50 20 55 -1 4 1 7 5 7 5 0 9 14 10 32 1 17 8
35 14 39 6 4 9 12 5 18 -5 7 -1 9 9 5 11 -5 14 -2 8 12 -4 12 -3 15 5 10 7 -4
15 0 19 11 29 82 147 316 241 478 42 72 75 138 75 147 -1 11 3 15 13 11 8 -3
14 -1 14 4 0 15 171 269 251 371 76 99 255 292 270 292 4 0 6 -8 2 -17z m-183
-28 c0 -8 -7 -15 -15 -15 -13 0 -14 3 -3 15 16 18 18 18 18 0z m-86 -46 c-9
-10 -21 -19 -26 -19 -5 0 -2 7 6 16 9 8 16 20 16 25 0 6 5 7 11 4 7 -5 4 -14
-7 -26z m26 -24 c-7 -9 -15 -13 -19 -10 -3 3 1 10 9 15 21 14 24 12 10 -5z
m-60 -25 c0 -5 -7 -10 -16 -10 -8 0 -12 5 -9 10 3 6 10 10 16 10 5 0 9 -4 9
-10z m-317 -35 c-3 -9 -8 -14 -10 -11 -3 3 -2 9 2 15 9 16 15 13 8 -4z m317
-4 c0 -5 -7 -11 -15 -15 -15 -5 -20 5 -8 17 9 10 23 9 23 -2z m-83 -53 c-3 -8
-6 -5 -6 6 -1 11 2 17 5 13 3 -3 4 -12 1 -19z m-17 -18 c0 -5 -5 -10 -11 -10
-5 0 -7 5 -4 10 3 6 8 10 11 10 2 0 4 -4 4 -10z m-300 -10 c0 -5 -2 -10 -4
-10 -3 0 -8 5 -11 10 -3 6 -1 10 4 10 6 0 11 -4 11 -10z m-10 -50 c0 -5 -5
-10 -11 -10 -5 0 -7 5 -4 10 3 6 8 10 11 10 2 0 4 -4 4 -10z m-40 -24 c0 -3
-4 -8 -10 -11 -5 -3 -10 -1 -10 4 0 6 5 11 10 11 6 0 10 -2 10 -4z m50 -6 c0
-5 -5 -10 -11 -10 -5 0 -7 5 -4 10 3 6 8 10 11 10 2 0 4 -4 4 -10z m226 -15
c-9 -9 -16 -13 -16 -8 0 12 22 34 28 28 2 -2 -3 -11 -12 -20z m-309 -17 c-3
-8 -6 -5 -6 6 -1 11 2 17 5 13 3 -3 4 -12 1 -19z m303 -40 c0 -7 -9 -24 -20
-38 -15 -20 -18 -21 -16 -7 1 10 9 23 17 28 8 5 10 9 6 9 -5 0 -5 5 -2 10 8
14 15 13 15 -2z m-318 -12 c6 4 8 2 4 -4 -3 -6 -2 -13 3 -17 5 -3 14 3 20 12
6 10 11 13 11 8 0 -6 -7 -21 -16 -33 -12 -17 -18 -19 -28 -9 -8 6 -11 18 -9
24 3 7 0 13 -7 13 -6 0 -8 5 -4 12 6 9 9 9 12 0 2 -7 9 -9 14 -6z m571 -73
c-9 -24 -84 -144 -178 -283 -83 -124 -115 -181 -115 -204 0 -20 -60 -175 -109
-279 -23 -49 -41 -91 -41 -94 0 -3 -10 -14 -21 -24 -12 -11 -19 -25 -15 -34 3
-8 1 -15 -5 -15 -6 0 -8 -4 -5 -9 8 -12 -4 -42 -13 -37 -4 3 -8 -5 -8 -17 -1
-12 -10 -27 -19 -34 -9 -6 -13 -16 -9 -22 3 -6 1 -11 -6 -11 -7 0 -10 -3 -6
-6 3 -3 -5 -30 -18 -59 -13 -30 -21 -56 -17 -59 3 -3 0 -6 -7 -6 -8 0 -11 -8
-8 -19 3 -12 -1 -22 -10 -25 -8 -3 -12 -10 -9 -15 4 -5 2 -11 -3 -13 -6 -1
-11 -24 -12 -50 -2 -43 -38 -114 -39 -78 0 12 -3 11 -11 -3 -6 -9 -8 -26 -4
-36 3 -10 0 -31 -6 -47 -7 -16 -12 -32 -11 -36 1 -5 -3 -8 -8 -8 -5 0 -9 -3
-8 -7 1 -5 -3 -17 -9 -28 -22 -39 -49 -201 -59 -350 -3 -44 -10 -81 -15 -83
-5 -2 -9 -13 -8 -25 0 -21 1 -21 9 -2 7 17 9 15 9 -12 1 -20 -4 -33 -11 -34
-10 0 -10 -2 0 -6 6 -2 12 -14 12 -26 0 -18 -2 -20 -11 -7 -9 13 -10 12 -5 -2
3 -10 9 -25 13 -35 5 -12 3 -14 -7 -8 -8 5 -11 4 -6 -3 3 -6 8 -43 10 -84 3
-40 7 -104 11 -143 6 -66 6 -69 -10 -48 -23 32 -45 89 -62 158 -15 59 -20 306
-9 404 11 94 23 168 37 231 15 62 15 63 44 175 14 55 27 105 28 110 2 6 7 17
12 25 5 8 8 23 6 34 -1 10 2 16 7 12 13 -8 36 21 62 79 12 28 25 54 28 59 3 5
-1 6 -9 1 -11 -7 -12 -6 -2 6 7 9 19 35 27 58 9 23 22 56 29 74 8 17 22 50 32
72 32 74 183 373 195 385 3 3 16 25 29 50 13 25 30 52 37 61 8 8 14 18 14 22
0 3 11 23 25 44 14 21 30 45 35 53 5 8 42 62 82 119 40 57 78 111 83 119 6 9
16 23 23 30 7 8 20 25 29 38 18 28 25 31 16 7z m-579 -2 c3 -4 -6 -19 -21 -32
l-26 -24 19 33 c20 35 21 36 28 23z m458 -13 c-7 -7 -12 -8 -12 -2 0 14 12 26
19 19 2 -3 -1 -11 -7 -17z m-538 -26 c-11 -7 -86 -134 -97 -162 -5 -13 -5 -13
-6 0 -1 38 93 190 108 174 3 -3 1 -8 -5 -12z m280 -74 c-10 -20 -19 -28 -22
-20 -2 7 4 22 14 33 25 27 27 24 8 -13z m206 -35 c0 -5 -11 -21 -25 -37 -14
-16 -25 -34 -25 -39 0 -6 -3 -7 -6 -4 -4 4 5 25 20 47 25 39 36 48 36 33z
m-246 -43 c-22 -36 -51 -52 -33 -18 15 28 32 47 42 48 5 0 0 -13 -9 -30z m-34
12 c0 -5 -7 -17 -15 -28 -14 -18 -14 -17 -4 9 12 27 19 34 19 19z m-259 -39
c-12 -20 -14 -14 -5 12 4 9 9 14 11 11 3 -2 0 -13 -6 -23z m-26 -23 c3 -5 -1
-10 -9 -10 -9 0 -16 5 -16 10 0 6 4 10 9 10 6 0 13 -4 16 -10z m254 -7 c-11
-13 -11 -17 -1 -20 15 -6 16 -24 0 -20 -6 1 -15 -9 -19 -23 -4 -14 -8 -18 -9
-10 -1 11 -4 9 -10 -5 -12 -28 -12 -37 0 -30 6 3 10 2 10 -3 0 -9 -23 -22 -37
-21 -6 0 -25 -36 -27 -53 -1 -4 -7 -13 -13 -19 -15 -15 -17 -33 -3 -24 13 8
13 -5 0 -25 -8 -13 -10 -12 -10 3 0 10 -4 15 -10 12 -13 -8 -2 20 30 75 14 25
39 72 55 105 27 53 42 74 54 75 2 0 -3 -7 -10 -17z m-285 -28 c-4 -8 -11 -15
-16 -15 -6 0 -5 6 2 15 7 8 14 15 16 15 2 0 1 -7 -2 -15z m-6 -55 c-7 -11 -17
-20 -22 -20 -5 0 -1 9 9 20 10 11 20 20 22 20 2 0 -2 -9 -9 -20z m107 -20 c3
-5 1 -10 -4 -10 -6 0 -11 5 -11 10 0 6 2 10 4 10 3 0 8 -4 11 -10z m375 0 c0
-5 -5 -10 -11 -10 -5 0 -7 5 -4 10 3 6 8 10 11 10 2 0 4 -4 4 -10z m-580 -60
c-6 -11 -13 -20 -16 -20 -2 0 0 9 6 20 6 11 13 20 16 20 2 0 0 -9 -6 -20z
m550 10 c0 -5 -2 -10 -4 -10 -3 0 -8 5 -11 10 -3 6 -1 10 4 10 6 0 11 -4 11
-10z m-518 -34 c7 4 8 2 4 -5 -4 -6 -11 -9 -16 -6 -8 5 -26 -33 -22 -47 1 -5
-2 -8 -8 -8 -5 0 -10 -8 -10 -17 0 -14 2 -15 9 -4 6 9 11 10 15 2 6 -9 -5 -15
-25 -13 -5 1 -56 -103 -77 -158 -5 -14 -22 -51 -36 -82 -14 -31 -29 -74 -32
-95 -6 -39 -64 -193 -112 -297 l-27 -58 -20 23 c-14 17 -15 20 -3 10 15 -11
18 -11 22 0 3 8 17 48 31 89 15 41 28 82 30 90 2 8 4 15 5 15 1 0 3 7 5 15 7
29 76 203 96 242 12 23 18 48 14 61 -4 14 -3 18 3 9 6 -8 28 28 73 118 35 72
65 126 67 120 2 -5 9 -7 14 -4z m75 -8 c-3 -8 -6 -5 -6 6 -1 11 2 17 5 13 3
-3 4 -12 1 -19z m-143 -43 c-4 -8 -8 -15 -10 -15 -2 0 -4 7 -4 15 0 8 4 15 10
15 5 0 7 -7 4 -15z m529 0 c-3 -9 -8 -14 -10 -11 -3 3 -2 9 2 15 9 16 15 13 8
-4z m-422 -28 c-10 -9 -11 -8 -5 6 3 10 9 15 12 12 3 -3 0 -11 -7 -18z m-149
-46 c-15 -27 -28 -48 -30 -47 -5 6 41 96 49 96 4 0 -5 -22 -19 -49z m332 41
c3 -5 -1 -9 -9 -9 -8 0 -12 4 -9 9 3 4 7 8 9 8 2 0 6 -4 9 -8z m-58 -94 c-15
-29 -21 -50 -15 -57 6 -8 5 -8 -3 -1 -8 6 -16 4 -25 -8 -12 -16 -12 -15 -6 3
3 11 10 22 13 25 4 3 17 25 29 48 12 24 24 42 27 40 2 -3 -7 -25 -20 -50z
m115 9 c-10 -9 -11 -8 -5 6 3 10 9 15 12 12 3 -3 0 -11 -7 -18z m2637 -70 c6
0 12 -4 12 -9 0 -5 -10 -6 -22 -3 -13 3 -41 9 -63 15 -38 9 -38 9 10 3 28 -3
56 -6 63 -6z m-2566 -29 c-7 -7 -12 -8 -12 -2 0 14 12 26 19 19 2 -3 -1 -11
-7 -17z m2618 12 c0 -5 -7 -7 -15 -4 -8 4 -15 8 -15 10 0 2 7 4 15 4 8 0 15
-4 15 -10z m50 -6 c0 -2 -7 -4 -15 -4 -8 0 -15 4 -15 10 0 5 7 7 15 4 8 -4 15
-8 15 -10z m95 -14 c38 -9 38 -9 -10 -3 -27 3 -56 6 -62 6 -7 0 -13 4 -13 9 0
5 10 6 23 3 12 -3 40 -9 62 -15z m-3321 -84 c-9 -25 -22 -50 -30 -56 -12 -11
-12 -7 -2 21 11 32 37 79 44 79 1 0 -4 -20 -12 -44z m254 -66 c-23 -50 -44
-87 -46 -82 -4 13 77 186 84 179 3 -3 -14 -46 -38 -97z m242 10 c-6 -12 -14
-20 -17 -17 -2 3 1 14 8 26 17 26 24 19 9 -9z m1760 20 c0 -5 -6 -10 -12 -11
-7 0 -22 -2 -33 -4 -11 -3 -51 -6 -90 -9 -38 -3 -101 -8 -140 -12 -50 -4 -67
-3 -60 5 12 12 61 21 170 30 138 11 165 11 165 1z m-1980 -40 c0 -5 -5 -10
-11 -10 -5 0 -7 5 -4 10 3 6 8 10 11 10 2 0 4 -4 4 -10z m1925 -21 c-40 -9
-120 -11 -112 -3 4 4 28 9 54 12 27 2 50 6 51 7 2 2 11 1 20 -3 13 -5 10 -8
-13 -13z m-425 -1 c0 -4 -4 -8 -9 -8 -6 0 -12 4 -15 8 -3 5 1 9 9 9 8 0 15 -4
15 -9z m-1300 -12 c0 -2 -7 -9 -15 -16 -13 -11 -14 -10 -9 4 5 14 24 23 24 12z
m-530 -16 c0 -5 -5 -10 -11 -10 -5 0 -7 5 -4 10 3 6 8 10 11 10 2 0 4 -4 4
-10z m2167 -6 c-3 -3 -12 -4 -19 -1 -8 3 -5 6 6 6 11 1 17 -2 13 -5z m23 -34
c0 -5 -9 -10 -20 -10 -11 0 -20 -4 -20 -8 0 -5 20 -7 45 -5 29 3 45 1 45 -6 0
-6 -3 -11 -7 -11 -5 0 -55 -2 -113 -5 -58 -2 -97 -2 -87 1 31 10 18 20 -20 17
-35 -3 -36 -2 -13 8 14 5 59 13 100 16 41 3 77 7 79 9 7 7 11 4 11 -6z m-1717
-70 c-3 -11 -9 -20 -13 -20 -5 0 -6 9 -3 20 3 11 9 20 13 20 5 0 6 -9 3 -20z
m1756 -10 c-12 -32 -31 -39 -100 -36 -27 1 -49 -2 -49 -6 0 -5 -10 0 -22 12
-29 27 -17 36 57 45 33 4 61 8 63 9 1 2 15 3 31 4 28 1 29 -1 20 -28z m-2009
-53 c0 -2 -18 -57 -40 -123 -48 -142 -80 -263 -79 -296 1 -21 7 -2 24 72 2 8
4 16 5 18 2 1 4 7 5 12 1 6 4 12 5 15 4 8 7 24 9 40 0 8 5 15 10 15 6 0 8 -10
6 -22 -13 -63 -88 -374 -92 -378 -2 -2 -2 19 1 48 6 63 -10 61 -20 -3 -3 -25
-11 -45 -16 -45 -5 0 -7 4 -4 8 3 5 8 37 12 73 3 35 8 67 10 71 2 3 7 28 10
55 7 69 59 258 89 328 14 33 31 72 38 88 9 22 27 38 27 24z m206 -41 c-6 -34
-36 -96 -47 -96 -9 0 1 31 28 87 18 39 25 42 19 9z m-411 -100 c-4 -20 -12
-36 -17 -36 -6 0 -7 7 -4 16 3 9 9 27 12 40 10 38 16 21 9 -20z m2298 25 c-3
-11 -14 -28 -25 -37 -19 -18 -19 -17 -8 10 14 38 19 46 30 46 4 0 6 -9 3 -19z
m-2407 -100 c-7 -62 -26 -122 -36 -116 -5 3 -6 13 -3 21 3 9 7 23 7 32 3 27
26 102 32 102 3 0 3 -17 0 -39z m2495 -44 c-10 -9 -11 -8 -5 6 3 10 9 15 12
12 3 -3 0 -11 -7 -18z m299 3 c-6 -11 -13 -20 -16 -20 -2 0 0 9 6 20 6 11 13
20 16 20 2 0 0 -9 -6 -20z m-2869 -43 c-10 -9 -11 -8 -5 6 3 10 9 15 12 12 3
-3 0 -11 -7 -18z m636 -29 c-3 -8 -6 -5 -6 6 -1 11 2 17 5 13 3 -3 4 -12 1
-19z m1583 -18 c0 -5 -5 -10 -11 -10 -5 0 -7 5 -4 10 3 6 8 10 11 10 2 0 4 -4
4 -10z m605 -27 c-4 -10 -10 -26 -12 -35 -3 -10 -9 -18 -13 -18 -5 0 -3 16 3
35 6 19 15 35 20 35 5 0 6 -8 2 -17z m-675 -38 c-7 -8 -18 -15 -24 -15 -6 0
-3 7 7 14 9 7 17 19 18 27 0 11 2 11 6 1 3 -7 -1 -19 -7 -27z m-1741 -53 c-5
-23 -12 -59 -15 -80 -3 -20 -9 -64 -14 -96 -5 -32 -7 -63 -4 -67 3 -5 2 -9 -3
-9 -4 0 -8 -17 -9 -38 -1 -20 -4 -86 -9 -147 -4 -60 -7 -138 -8 -172 -1 -109
-19 -73 -34 66 -12 112 -4 295 14 323 2 5 6 18 8 29 12 64 73 244 80 237 2 -2
0 -23 -6 -46z m181 -28 c-23 -76 -23 -78 -40 -149 -14 -55 -32 -85 -24 -39 13
72 73 269 80 261 2 -2 -5 -35 -16 -73z m1513 33 c-10 -12 -23 -25 -30 -30 -7
-4 -19 -14 -28 -23 -8 -8 -15 -11 -15 -6 0 5 16 22 35 36 19 15 35 34 35 42 0
8 5 12 11 9 7 -5 4 -14 -8 -28z m437 13 c0 -5 -2 -10 -4 -10 -3 0 -8 5 -11 10
-3 6 -1 10 4 10 6 0 11 -4 11 -10z m-229 -77 c-12 -20 -14 -14 -5 12 4 9 9 14
11 11 3 -2 0 -13 -6 -23z m-161 -22 c0 -32 -463 -486 -530 -521 -16 -8 -30
-19 -30 -25 0 -16 -53 -56 -67 -51 -11 5 -18 -6 -10 -18 5 -9 -126 -90 -163
-101 -19 -6 -11 6 35 51 52 50 140 130 229 207 21 18 136 122 187 168 14 13
56 51 94 84 37 33 93 83 124 112 71 65 125 113 129 113 1 0 2 -9 2 -19z
m-2078 -23 c-7 -7 -10 -5 -7 8 5 29 6 30 12 16 3 -8 1 -18 -5 -24z m1928 8 c0
-3 -4 -8 -10 -11 -5 -3 -10 -1 -10 4 0 6 5 11 10 11 6 0 10 -2 10 -4z m286
-32 c-4 -9 -9 -15 -11 -12 -3 3 -3 13 1 22 4 9 9 15 11 12 3 -3 3 -13 -1 -22z
m334 22 c0 -3 -4 -8 -10 -11 -5 -3 -10 -1 -10 4 0 6 5 11 10 11 6 0 10 -2 10
-4z m-650 -14 c0 -5 -11 -15 -25 -22 -13 -7 -27 -21 -31 -32 -3 -10 -15 -23
-26 -29 -26 -14 -19 -2 30 51 36 39 52 48 52 32z m362 -84 c-17 -46 -63 -171
-102 -278 -40 -107 -106 -285 -147 -395 -41 -110 -76 -204 -77 -210 -2 -5 -6
-17 -9 -25 -4 -8 -22 -58 -41 -110 -19 -52 -40 -108 -47 -125 -6 -16 -13 -34
-15 -40 -1 -5 -9 -28 -17 -50 -29 -77 -17 -6 14 82 17 48 33 93 34 98 1 6 6
25 10 43 4 18 12 35 16 38 5 3 9 14 9 25 0 11 6 32 14 48 9 16 11 33 6 41 -9
15 14 84 38 112 8 10 12 24 9 33 -9 22 3 51 14 34 11 -19 32 39 24 68 -3 13
-1 23 5 23 6 0 8 5 5 10 -4 6 -1 17 5 25 7 8 10 15 7 15 -3 0 2 19 12 43 22
52 34 80 35 87 3 11 50 126 56 135 11 17 44 110 39 111 -2 1 3 10 12 20 15 18
72 133 99 202 7 18 15 30 18 28 3 -3 -9 -43 -26 -88z m-2378 -20 c-3 -51 -7
-95 -10 -98 -7 -6 -3 160 3 178 10 26 12 9 7 -80z m2601 -15 c-9 -32 -19 -65
-22 -73 -3 -8 -7 -17 -7 -20 -1 -3 -9 -16 -18 -29 -34 -48 -28 -12 13 88 23
56 44 99 46 97 3 -3 -3 -31 -12 -63z m196 44 c-10 -9 -11 -8 -5 6 3 10 9 15
12 12 3 -3 0 -11 -7 -18z m-321 -44 c-11 -17 -11 -17 -6 0 3 10 7 26 7 35 1
15 2 15 6 0 2 -10 -1 -25 -7 -35z m-340 33 c0 -3 -4 -8 -10 -11 -5 -3 -10 -1
-10 4 0 6 5 11 10 11 6 0 10 -2 10 -4z m-1877 -31 c-7 -21 -12 -19 -10 4 0 11
5 18 9 15 4 -3 5 -11 1 -19z m1837 -10 c-7 -9 -15 -13 -18 -10 -3 2 1 11 8 20
7 9 15 13 18 10 3 -2 -1 -11 -8 -20z m24 -23 c-23 -41 -208 -222 -225 -222
-11 0 -12 2 -1 9 7 4 14 19 14 32 2 30 35 79 53 79 22 0 68 47 59 61 -4 7 -3
9 4 6 5 -4 32 10 59 32 26 21 50 37 51 35 2 -1 -4 -16 -14 -32z m-1867 -14
c-3 -8 -6 -5 -6 6 -1 11 2 17 5 13 3 -3 4 -12 1 -19z m30 -10 c-3 -8 -6 -5 -6
6 -1 11 2 17 5 13 3 -3 4 -12 1 -19z m1783 18 c0 -3 -4 -8 -10 -11 -5 -3 -10
-1 -10 4 0 6 5 11 10 11 6 0 10 -2 10 -4z m-248 -38 c-7 -7 -12 -8 -12 -2 0
14 12 26 19 19 2 -3 -1 -11 -7 -17z m-1565 -10 c-3 -8 -6 -5 -6 6 -1 11 2 17
5 13 3 -3 4 -12 1 -19z m320 7 c0 -8 -4 -12 -9 -9 -5 3 -6 10 -3 15 9 13 12
11 12 -6z m-287 -42 c0 -21 -3 -24 -9 -14 -5 8 -7 20 -4 28 8 21 13 15 13 -14z
m-124 -18 c1 -19 -2 -35 -5 -35 -6 0 -8 58 -2 68 4 8 6 -2 7 -33z m90 -30 c0
-35 -2 -62 -5 -59 -10 10 -8 124 2 124 1 0 2 -29 3 -65z m2176 33 c-8 -8 -9
-4 -5 13 4 13 8 18 11 10 2 -7 -1 -18 -6 -23z m-2307 -75 c3 -32 8 -76 10 -98
l4 -40 -14 30 c-14 31 -26 177 -14 169 4 -2 10 -30 14 -61z m1955 57 c0 -5 -5
-10 -11 -10 -5 0 -7 5 -4 10 3 6 8 10 11 10 2 0 4 -4 4 -10z m-1790 -57 c0
-31 -2 -54 -5 -51 -9 8 -11 108 -3 108 5 0 8 -25 8 -57z m2237 20 c-3 -3 -11
-2 -17 2 -9 6 -9 10 1 16 14 8 27 -7 16 -18z m298 6 c-6 -29 -15 -37 -15 -12
0 17 8 33 16 33 2 0 1 -10 -1 -21z m-2488 -11 c-3 -8 -6 -5 -6 6 -1 11 2 17 5
13 3 -3 4 -12 1 -19z m1696 5 c-6 -16 -5 -17 13 -4 10 8 -20 -26 -68 -75 -109
-111 -108 -109 -80 -95 24 13 51 34 105 84 36 34 44 29 22 -12 -9 -18 -14 -35
-11 -40 8 -13 -51 -64 -65 -56 -7 5 -17 2 -23 -6 -6 -8 -44 -40 -83 -73 -70
-56 -98 -84 -51 -52 29 21 44 20 27 -1 -12 -14 -12 -16 1 -11 8 2 15 11 15 19
0 18 43 61 47 48 2 -6 21 2 42 16 21 14 43 24 49 22 12 -4 -127 -145 -225
-227 -36 -30 -76 -70 -88 -88 -13 -18 -25 -30 -27 -28 -3 2 -25 -4 -50 -15
-41 -18 -45 -18 -32 -2 8 10 25 28 39 41 l25 23 -45 -22 c-43 -21 -130 -76
-140 -89 -9 -12 -39 -19 -44 -11 -5 7 87 97 149 146 19 16 19 16 -3 5 -39 -19
-44 -7 -12 31 16 20 27 39 24 42 -3 3 1 16 10 29 9 12 16 17 16 11 0 -7 -4
-15 -10 -18 -5 -3 -10 -11 -10 -17 0 -6 11 -1 24 11 15 14 22 30 19 40 -5 13
-3 14 7 4 11 -10 17 -10 29 0 12 9 13 9 7 0 -4 -7 -3 -13 3 -13 5 0 8 14 6 31
-3 23 0 29 10 25 18 -7 30 10 13 18 -9 4 -8 5 2 5 27 -2 40 1 38 9 -3 15 14
42 24 36 5 -3 16 3 24 14 8 12 21 19 28 16 7 -3 16 2 19 10 4 9 1 16 -5 16 -6
0 -8 3 -4 8 4 4 12 7 18 7 5 0 23 16 40 35 16 19 27 29 23 23 -3 -7 -1 -13 4
-13 6 0 11 6 11 13 0 8 25 38 56 68 31 30 61 59 68 66 16 18 26 16 19 -4z
m-1863 -18 c0 -14 -3 -25 -7 -25 -5 0 -8 11 -8 25 0 14 3 25 8 25 4 0 7 -11 7
-25z m1727 -13 c-10 -10 -17 -22 -17 -26 0 -13 -41 -54 -110 -109 -36 -28 -67
-54 -70 -57 -3 -3 -25 -21 -50 -40 -25 -19 -47 -37 -50 -40 -3 -3 -25 -21 -50
-40 -25 -19 -51 -40 -58 -47 -32 -31 -101 -73 -96 -58 3 8 9 15 13 15 3 0 20
13 37 28 57 49 78 67 154 127 41 33 77 62 80 65 3 3 33 27 67 53 34 26 70 58
81 72 11 13 22 22 25 19 3 -3 13 8 23 25 10 17 23 31 28 31 5 0 2 -8 -7 -18z
m607 -37 c-4 -8 -8 -15 -10 -15 -2 0 -4 7 -4 15 0 8 4 15 10 15 5 0 7 -7 4
-15z m292 -12 c-2 -9 -8 -19 -14 -21 -6 -2 -8 5 -5 17 6 25 22 28 19 4z
m-1216 -6 c0 -2 -10 -12 -22 -23 l-23 -19 19 23 c18 21 26 27 26 19z m-1293
-39 c-3 -8 -6 -5 -6 6 -1 11 2 17 5 13 3 -3 4 -12 1 -19z m1188 -58 c-21 -22
-41 -38 -43 -35 -3 2 13 22 34 44 21 22 40 38 43 36 2 -3 -13 -23 -34 -45z
m978 -17 c-8 -21 -19 -47 -23 -58 -5 -11 -15 -36 -24 -57 -9 -20 -16 -42 -16
-50 0 -8 -5 -19 -11 -25 -6 -6 -12 -17 -13 -24 -6 -35 -30 -99 -36 -99 -24 0
34 183 91 291 35 65 58 81 32 22z m-119 2 c-4 -8 -10 -15 -15 -15 -4 0 -6 7
-3 15 4 8 10 15 15 15 4 0 6 -7 3 -15z m163 0 c0 -8 -4 -12 -9 -9 -5 3 -6 10
-3 15 9 13 12 11 12 -6z m120 -37 c-3 -8 -6 -5 -6 6 -1 11 2 17 5 13 3 -3 4
-12 1 -19z m-1207 2 c0 -5 -5 -10 -11 -10 -5 0 -7 5 -4 10 3 6 8 10 11 10 2 0
4 -4 4 -10z m857 -12 c-3 -8 -6 -5 -6 6 -1 11 2 17 5 13 3 -3 4 -12 1 -19z
m-3 -33 c-4 -8 -8 -15 -10 -15 -2 0 -4 7 -4 15 0 8 4 15 10 15 5 0 7 -7 4 -15z
m33 -15 c-6 -16 -15 -30 -19 -30 -5 0 -2 14 7 30 9 17 17 30 19 30 3 0 -1 -13
-7 -30z m293 -10 c0 -5 -5 -10 -11 -10 -5 0 -7 5 -4 10 3 6 8 10 11 10 2 0 4
-4 4 -10z m-354 -32 c-3 -13 -21 -70 -41 -128 -20 -57 -33 -110 -31 -117 3 -7
0 -12 -6 -10 -7 1 -12 -2 -13 -8 0 -5 -13 -48 -29 -93 -15 -46 -25 -90 -22
-98 3 -8 1 -12 -4 -9 -11 7 -44 -100 -35 -115 4 -6 1 -9 -6 -8 -7 2 -15 -6
-17 -17 -2 -11 -24 -78 -49 -150 -24 -71 -46 -137 -48 -145 -2 -8 -4 -16 -5
-17 -2 -2 -3 -6 -4 -10 -4 -18 -39 -119 -45 -128 -3 -5 -6 -12 -7 -15 -10 -54
-18 -80 -25 -80 -11 0 -7 19 37 165 27 93 131 397 151 445 3 8 7 18 8 23 2 4
3 8 5 10 1 1 3 9 5 17 2 8 38 112 80 230 42 118 81 230 86 248 11 36 22 44 15
10z m-23 -158 c-3 -12 -8 -19 -11 -16 -5 6 5 36 12 36 2 0 2 -9 -1 -20z m138
-93 c-10 -9 -11 -8 -5 6 3 10 9 15 12 12 3 -3 0 -11 -7 -18z m-58 -64 c-3 -21
-7 -40 -9 -42 -2 -2 1 -10 6 -16 13 -15 2 -47 -13 -38 -6 4 -8 0 -4 -10 3 -10
3 -17 -2 -17 -8 0 -51 -94 -51 -112 0 -6 -6 -24 -14 -41 -21 -50 -68 -218 -62
-224 6 -6 15 14 21 44 2 10 4 19 5 21 2 1 3 5 4 10 5 19 39 119 47 137 5 11
11 31 14 44 2 13 7 26 10 30 7 6 -3 -58 -11 -71 -3 -4 -7 -16 -9 -26 -9 -48
-88 -268 -99 -277 -7 -5 -11 -15 -9 -22 2 -6 -3 -23 -13 -38 -9 -14 -18 -38
-19 -53 -2 -15 -8 -40 -14 -55 -6 -16 -8 -33 -5 -39 4 -7 2 -8 -4 -4 -7 4 -12
5 -12 2 0 -2 -3 -12 -7 -22 -5 -13 -3 -15 7 -9 9 5 11 4 6 -4 -4 -6 -11 -9
-16 -6 -5 3 -16 -17 -25 -45 -16 -47 -44 -86 -32 -44 3 11 8 35 12 54 3 19 15
67 27 105 31 107 88 295 103 340 7 22 32 103 55 180 23 77 45 145 49 150 4 6
18 38 31 73 28 70 40 80 33 25z m-673 22 c0 -2 -10 -10 -22 -16 -21 -11 -22
-11 -9 4 13 16 31 23 31 12z m360 -9 c0 -2 -7 -9 -15 -16 -13 -11 -14 -10 -9
4 5 14 24 23 24 12z m31 -33 c-12 -20 -14 -14 -5 12 4 9 9 14 11 11 3 -2 0
-13 -6 -23z m303 -17 c-3 -9 -10 -16 -15 -16 -5 0 -4 9 3 20 14 22 21 20 12
-4z m-860 -34 c-74 -61 -136 -97 -147 -85 -8 7 135 103 153 103 11 -1 10 -5
-6 -18z m526 -47 c-10 -30 -17 -55 -15 -55 3 0 -5 -18 -16 -40 -12 -23 -23
-39 -25 -37 -6 6 60 187 68 187 4 0 -2 -25 -12 -55z m23 -327 c-8 -24 -17 -45
-20 -48 -7 -7 8 52 19 73 15 30 16 18 1 -25z m-198 -15 c-5 -21 -9 -42 -10
-48 -2 -5 -10 -26 -18 -45 l-16 -35 4 39 c5 43 11 68 28 108 15 37 21 27 12
-19z m62 -29 c2 -6 -3 -11 -10 -11 -8 0 -14 6 -14 14 0 15 19 12 24 -3z m-56
-148 c-14 -36 -22 -33 -9 5 6 16 12 28 14 26 3 -2 0 -16 -5 -31z m-65 -27 c-2
-17 -7 -33 -10 -37 -8 -7 -8 32 0 52 10 26 16 18 10 -15z m-24 -111 c-6 -6 -7
0 -4 19 5 21 7 23 10 9 2 -10 0 -22 -6 -28z m46 -23 c-1 -14 -6 -25 -11 -25
-5 0 -6 7 -3 16 3 9 6 20 6 25 0 5 2 9 5 9 3 0 4 -11 3 -25z m67 -125 c-11
-44 -13 -47 -9 -15 7 61 17 102 21 85 1 -8 -4 -40 -12 -70z m-140 38 c-2 -18
-4 -45 -4 -60 -1 -16 -5 -28 -10 -28 -9 0 -7 40 5 98 7 33 13 27 9 -10z m349
5 c-4 -15 -7 -33 -7 -40 0 -7 -4 -13 -9 -13 -5 0 -6 10 -3 23 4 12 9 30 11 40
8 28 15 19 8 -10z m-254 -3 c0 -5 -2 -10 -4 -10 -3 0 -8 5 -11 10 -3 6 -1 10
4 10 6 0 11 -4 11 -10z m-53 -32 c-3 -8 -6 -5 -6 6 -1 11 2 17 5 13 3 -3 4
-12 1 -19z m86 -88 c-3 -11 -7 -20 -9 -20 -2 0 -4 9 -4 20 0 11 4 20 9 20 5 0
7 -9 4 -20z m148 -13 c-10 -9 -11 -8 -5 6 3 10 9 15 12 12 3 -3 0 -11 -7 -18z
m-316 -147 c3 -5 1 -10 -4 -10 -6 0 -11 5 -11 10 0 6 2 10 4 10 3 0 8 -4 11
-10z m5 -74 c0 -3 -4 -8 -10 -11 -5 -3 -10 -1 -10 4 0 6 5 11 10 11 6 0 10 -2
10 -4z m-3 -168 c-3 -7 -5 -2 -5 12 0 14 2 19 5 13 2 -7 2 -19 0 -25z m269
-99 c5 -83 4 -102 -6 -92 -12 11 -15 55 -11 162 2 74 11 40 17 -70z m-116 -44
c0 -5 -5 -3 -10 5 -5 8 -10 20 -10 25 0 6 5 3 10 -5 5 -8 10 -19 10 -25z m100
-126 c6 -22 9 -46 7 -52 -5 -17 -26 25 -33 68 -8 50 12 37 26 -16z m95 -104
c30 -65 59 -123 65 -129 5 -5 10 -15 10 -22 0 -13 -28 -27 -40 -19 -16 10 -73
143 -91 214 -34 133 -21 123 56 -44z m-255 30 c0 -5 -5 -3 -10 5 -5 8 -10 20
-10 25 0 6 5 3 10 -5 5 -8 10 -19 10 -25z"/>
<path d="M746 3963 c-6 -14 -5 -15 5 -6 7 7 10 15 7 18 -3 3 -9 -2 -12 -12z"/>
<path d="M647 3613 c-36 -154 -46 -225 -49 -368 -2 -100 8 -198 22 -224 4 -8
7 69 6 170 -1 198 4 270 29 397 3 15 8 36 10 47 1 11 6 35 10 53 4 17 5 32 2
32 -3 0 -17 -48 -30 -107z"/>
<path d="M2453 4293 c9 -2 25 -2 35 0 9 3 1 5 -18 5 -19 0 -27 -2 -17 -5z"/>
<path d="M2435 3370 c-3 -5 -2 -10 4 -10 5 0 13 5 16 10 3 6 2 10 -4 10 -5 0
-13 -4 -16 -10z"/>
<path d="M2200 2744 c-11 -27 -13 -51 -5 -42 8 8 25 68 19 68 -2 0 -9 -12 -14
-26z"/>
<path d="M2130 3260 c-9 -6 -10 -10 -3 -10 6 0 15 5 18 10 8 12 4 12 -15 0z"/>
<path d="M2064 3199 c-19 -22 -19 -22 4 -10 12 6 22 16 22 21 0 15 -5 12 -26
-11z"/>
<path d="M1990 3125 c-7 -8 -10 -15 -6 -15 4 0 0 -13 -9 -29 -9 -19 -11 -32
-5 -36 6 -3 10 1 10 10 0 8 7 18 15 21 8 4 13 17 12 35 -2 34 -1 33 -17 14z"/>
<path d="M2099 3113 c-13 -17 -13 -17 6 -3 11 8 22 16 24 17 2 2 0 3 -6 3 -6
0 -17 -8 -24 -17z"/>
<path d="M1900 2999 c0 -5 5 -7 10 -4 6 3 10 8 10 11 0 2 -4 4 -10 4 -5 0 -10
-5 -10 -11z"/>
<path d="M1847 2977 c-10 -10 -17 -20 -15 -23 8 -7 41 22 37 32 -2 6 -12 1
-22 -9z"/>
<path d="M1937 2910 c-22 -37 -16 -38 18 -5 28 29 30 35 12 35 -7 0 -21 -13
-30 -30z"/>
<path d="M1881 2899 c-13 -18 -19 -29 -12 -25 6 4 11 2 11 -3 0 -6 5 -11 11
-11 8 0 8 5 -1 15 -8 10 -9 15 -2 15 6 0 16 9 22 20 17 31 -4 23 -29 -11z"/>
<path d="M1823 2913 c-13 -2 -23 -11 -23 -19 0 -11 4 -12 19 -4 16 8 42 34 29
29 -2 -1 -13 -4 -25 -6z"/>
<path d="M1833 2864 c-20 -21 -16 -42 3 -22 9 9 15 21 13 26 -2 6 -9 4 -16 -4z"/>
<path d="M1786 2825 c-17 -13 -17 -15 -4 -15 9 0 19 -8 21 -17 2 -10 4 -3 3
14 0 18 -1 33 -1 33 0 -1 -9 -7 -19 -15z"/>
<path d="M1770 2775 c-7 -9 -8 -15 -2 -15 5 0 12 7 16 15 3 8 4 15 2 15 -2 0
-9 -7 -16 -15z"/>
<path d="M2262 2093 c-12 -40 -3 -34 16 10 6 15 8 27 3 27 -4 0 -13 -16 -19
-37z"/>
<path d="M4248 6645 c-2 -2 -25 -5 -53 -8 -67 -7 -164 -41 -250 -85 -38 -20
-72 -39 -75 -42 -3 -3 -23 -18 -45 -35 -147 -108 -248 -292 -236 -433 1 -7 12
-18 26 -24 21 -10 48 -47 101 -144 6 -11 45 -78 86 -150 41 -71 86 -149 100
-174 14 -25 71 -123 127 -219 55 -96 101 -175 101 -176 0 -2 18 -33 40 -69 22
-36 40 -70 40 -76 0 -5 5 -10 10 -10 6 0 10 -5 10 -10 0 -6 18 -40 40 -76 22
-36 40 -68 40 -70 0 -2 18 -33 40 -69 22 -36 40 -67 40 -70 0 -3 16 -29 35
-59 19 -30 35 -57 35 -60 0 -17 296 -434 397 -561 46 -57 83 -120 83 -140 0
-27 -22 -86 -39 -107 -6 -7 -60 -89 -119 -183 -59 -93 -129 -202 -155 -242
-26 -40 -47 -76 -47 -81 0 -5 -24 -49 -53 -98 -29 -49 -100 -169 -158 -267
-57 -98 -111 -190 -120 -205 -245 -417 -285 -490 -333 -615 -74 -194 -91 -285
-91 -492 0 -174 10 -247 48 -345 47 -126 129 -182 232 -160 18 4 41 1 58 -7
15 -8 44 -14 65 -15 20 0 43 -6 51 -12 19 -15 82 -14 108 2 12 8 26 11 31 8 7
-4 22 47 22 76 0 2 9 32 21 68 11 36 22 81 25 100 3 19 10 38 17 42 6 4 12 17
12 30 2 44 17 98 26 92 5 -3 9 0 9 5 0 6 -4 11 -9 11 -17 0 -35 -33 -57 -108
-17 -56 -23 -69 -24 -47 -2 48 -10 79 -21 86 -12 7 -10 111 1 144 4 11 10 43
14 70 5 46 5 48 -8 25 -14 -27 -35 -108 -38 -152 -1 -15 -5 -25 -9 -23 -3 3
-4 16 -1 30 3 18 0 25 -8 23 -30 -7 -2 155 52 302 28 75 95 199 267 493 28 49
51 90 51 92 0 1 25 45 56 96 31 52 64 108 74 124 9 17 28 50 42 75 117 208
243 417 264 437 7 7 16 22 19 33 3 11 11 20 16 20 5 0 9 7 9 15 0 8 5 15 10
15 6 0 10 7 10 15 0 8 5 15 10 15 6 0 10 7 10 15 0 8 3 15 8 15 4 0 21 23 37
51 17 28 35 56 41 62 5 7 19 27 29 45 11 17 23 32 27 32 4 0 8 5 8 10 0 9 35
65 50 80 3 3 119 176 259 385 140 209 272 403 293 432 21 29 38 55 38 59 0 4
17 30 38 58 20 28 87 125 147 216 61 91 112 167 116 170 3 3 15 22 28 43 12
20 27 37 32 37 6 0 7 -6 3 -12 -9 -15 -90 -128 -103 -144 -19 -23 -141 -205
-141 -210 0 -3 -19 -33 -42 -67 -76 -111 -107 -167 -102 -185 5 -13 4 -14 -4
-4 -7 10 -16 2 -37 -33 -15 -26 -35 -55 -45 -65 -15 -15 -49 -65 -145 -212 -5
-8 -23 -35 -39 -59 -100 -150 -136 -209 -136 -221 0 -7 6 -4 12 7 17 31 79
104 86 104 20 -3 25 2 12 11 -12 8 -12 10 5 10 16 0 17 2 6 9 -12 8 -8 19 18
60 18 28 40 51 49 51 8 0 12 3 9 6 -9 9 12 46 22 39 5 -2 8 3 7 13 0 9 5 16
12 14 8 -1 11 2 7 8 -7 12 35 71 47 64 7 -5 12 10 9 29 -2 14 36 57 44 49 5
-4 5 -2 2 4 -8 14 27 66 38 57 4 -5 6 -3 2 2 -3 6 -2 17 4 25 7 12 9 11 9 -4
0 -16 5 -13 25 15 13 19 28 39 33 44 4 6 28 39 52 75 24 36 47 67 52 68 4 2 8
8 8 12 0 5 14 24 31 42 16 18 44 53 60 78 17 25 32 44 35 43 11 -7 20 -1 31
22 6 14 7 23 2 19 -16 -10 -9 13 8 27 15 12 16 12 8 -1 -8 -13 -7 -13 8 -1 18
15 23 26 7 16 -15 -9 -12 -1 15 46 14 24 25 38 25 31 0 -7 4 -11 10 -7 5 3 7
12 4 19 -13 33 89 200 250 410 50 65 98 129 106 142 8 13 19 24 23 24 11 0 -2
-41 -19 -61 -19 -21 -18 -35 1 -19 8 7 15 9 15 6 0 -4 -14 -19 -30 -33 -17
-13 -28 -29 -24 -34 3 -5 0 -9 -6 -9 -6 0 -8 -5 -5 -11 4 -6 -2 -13 -14 -16
-15 -4 -19 -9 -11 -18 7 -8 3 -15 -15 -25 -14 -7 -25 -21 -25 -30 0 -28 -71
-132 -86 -126 -8 3 -14 1 -14 -4 0 -6 5 -10 11 -10 5 0 7 -5 4 -10 -4 -6 -11
-7 -17 -4 -6 4 -8 2 -5 -3 4 -6 -7 -29 -23 -52 -17 -22 -30 -43 -30 -47 0 -3
-6 -11 -12 -18 -7 -8 -19 -22 -26 -32 -47 -72 -99 -149 -107 -163 -5 -9 -12
-18 -15 -21 -6 -5 -109 -157 -154 -225 -14 -22 -29 -44 -34 -50 -20 -25 -23
-35 -9 -35 7 0 36 33 64 73 156 226 217 309 221 298 4 -13 31 15 32 33 0 6 -7
1 -15 -10 -8 -10 -15 -14 -15 -7 0 6 7 18 15 27 8 8 15 19 15 25 0 6 9 10 21
8 14 -1 24 6 30 21 6 15 5 21 -1 17 -16 -10 -12 12 6 29 8 9 20 14 25 10 10
-6 29 36 22 49 -2 4 2 7 9 7 8 0 30 21 49 48 37 51 60 89 35 58 -9 -11 -16
-16 -16 -10 0 16 19 39 32 39 7 1 12 7 10 14 -1 7 1 10 6 7 5 -3 19 8 31 24
12 17 27 30 34 30 8 0 8 -3 2 -8 -6 -4 -23 -28 -38 -53 -14 -25 -53 -82 -86
-127 -33 -44 -57 -83 -54 -86 3 -3 27 25 53 63 43 63 107 151 128 176 5 6 14
19 20 30 11 19 11 19 12 1 0 -11 -16 -48 -35 -84 -44 -79 -154 -246 -166 -250
-5 -2 -9 -8 -9 -14 0 -5 -12 -25 -26 -44 -15 -19 -24 -34 -21 -34 13 0 51 48
102 126 63 96 75 107 75 64 0 -50 -22 -90 -160 -291 -71 -105 -130 -195 -130
-199 0 -5 -3 -10 -8 -12 -4 -1 -48 -64 -98 -138 -50 -74 -112 -166 -137 -203
-26 -38 -44 -73 -41 -79 4 -6 3 -8 -3 -5 -6 4 -58 -64 -115 -151 -58 -86 -125
-179 -150 -207 -24 -27 -75 -99 -113 -160 -109 -175 -217 -335 -226 -335 -5 0
-9 -4 -9 -9 0 -6 -14 -31 -31 -56 -25 -37 -34 -44 -45 -34 -9 7 -14 8 -14 1 0
-6 6 -12 12 -14 9 -3 8 -12 -6 -33 -12 -17 -21 -24 -25 -16 -5 7 -18 -4 -37
-30 -16 -22 -36 -48 -45 -57 -23 -24 -51 -82 -40 -82 5 0 19 12 30 26 12 15
21 22 21 16 0 -6 -15 -26 -32 -46 -18 -19 -34 -41 -36 -48 -2 -7 -11 -19 -20
-26 -9 -7 -16 -16 -15 -20 0 -4 -4 -6 -9 -4 -6 2 -8 -4 -4 -14 4 -10 -4 -25
-22 -42 -38 -35 -54 -66 -45 -88 5 -14 3 -16 -11 -11 -14 6 -17 3 -12 -9 4
-11 2 -15 -7 -11 -18 7 -39 -27 -25 -41 7 -7 6 -16 -1 -29 -11 -16 -11 -15 -6
7 l6 25 -21 -24 c-13 -15 -18 -31 -15 -45 4 -14 3 -17 -3 -8 -7 10 -12 6 -23
-15 -23 -45 -210 -328 -220 -331 -5 -2 -9 -8 -9 -13 0 -4 -20 -40 -45 -78 -25
-38 -45 -74 -45 -80 0 -6 -4 -11 -9 -11 -5 0 -11 -8 -15 -18 -6 -20 -39 -76
-54 -94 -6 -7 -11 -17 -12 -23 -1 -5 -7 -23 -15 -40 -34 -77 -66 -168 -62
-178 2 -7 27 34 55 90 35 69 63 110 86 128 20 15 78 94 138 188 56 89 106 167
111 172 4 6 49 66 98 135 50 69 99 136 109 150 67 90 255 349 376 516 61 85
163 198 195 214 11 7 43 -2 107 -31 141 -62 200 -60 269 11 47 48 89 145 98
225 1 6 -5 23 -13 39 -8 16 -14 44 -14 63 0 22 -11 51 -28 76 -37 57 -84 158
-83 180 1 9 9 24 18 33 9 9 142 183 297 388 408 538 439 578 498 638 43 44
108 113 160 174 147 169 281 389 345 564 23 65 26 85 21 150 -5 75 -10 106
-21 140 -3 10 -8 27 -10 38 -9 49 -71 178 -124 259 -126 190 -294 321 -471
367 -78 20 -168 27 -192 14 -28 -14 -52 -74 -74 -183 -4 -20 -88 -191 -150
-305 -20 -36 -70 -117 -113 -180 -43 -63 -185 -275 -316 -470 -464 -692 -436
-653 -455 -634 -18 18 -244 483 -340 699 -34 77 -68 155 -76 173 -54 119 -111
262 -106 266 3 4 0 6 -6 6 -7 0 -12 7 -12 15 0 8 -9 34 -19 58 -11 23 -43 105
-72 182 -29 77 -55 142 -59 145 -4 3 -13 20 -21 38 -8 17 -17 32 -21 32 -5 0
-8 5 -8 10 0 10 -20 41 -60 94 -74 97 -210 186 -310 202 -44 7 -148 13 -152 9z
m300 -1066 c18 -24 39 -51 46 -59 7 -9 15 -24 19 -33 11 -29 30 -20 22 10 -9
36 -5 31 38 -50 19 -37 29 -63 22 -57 -7 6 -21 27 -30 46 -9 19 -21 32 -27 28
-7 -4 -6 -9 1 -14 7 -4 11 -11 9 -16 -6 -18 76 -165 90 -159 7 2 12 -1 10 -8
-2 -12 83 -149 90 -142 2 2 -8 24 -22 49 -24 43 -24 46 -7 46 15 0 18 5 14 23
-3 13 3 8 13 -13 10 -19 22 -36 26 -38 4 -2 8 -7 8 -12 0 -4 20 -44 45 -89 25
-45 43 -86 40 -91 -3 -5 0 -12 6 -16 8 -5 9 -3 4 6 -5 9 -4 11 3 6 7 -4 12
-12 12 -18 0 -14 139 -221 175 -262 14 -15 28 -26 31 -23 4 4 -88 160 -113
192 -5 6 -14 21 -21 35 -7 14 -31 52 -53 85 -22 33 -42 68 -45 78 -4 9 -10 17
-15 17 -5 0 -9 4 -9 10 0 5 -34 65 -77 132 -42 68 -76 131 -75 142 0 10 -2 16
-5 13 -6 -7 -23 10 -41 41 -7 12 -8 22 -3 22 18 0 84 -77 135 -158 173 -276
302 -473 332 -507 l35 -40 -21 43 c-12 24 -37 68 -56 98 -19 30 -32 54 -29 54
7 0 165 -213 213 -288 51 -79 57 -104 35 -150 -9 -20 -20 -39 -23 -42 -3 -3
-21 -26 -40 -52 -18 -27 -39 -48 -45 -48 -12 0 -33 22 -80 85 -17 22 -34 44
-38 50 -100 123 -313 440 -408 605 -8 14 -17 27 -20 30 -3 3 -11 19 -18 37 -7
18 -20 38 -28 45 -8 7 6 -28 31 -77 25 -48 44 -90 42 -93 -3 -2 -12 11 -22 29
-9 18 -25 48 -35 66 -11 18 -29 50 -40 71 -12 20 -29 48 -39 62 -9 14 -20 32
-24 40 -3 8 -20 38 -37 65 -16 28 -33 58 -36 68 -3 9 -9 17 -13 17 -4 0 -10 8
-14 18 -3 9 -9 24 -12 32 -10 24 32 -24 77 -87 48 -67 47 -64 -4 35 -49 94
-59 122 -47 122 6 0 10 -6 10 -13 0 -8 9 -22 20 -32 27 -24 25 -9 -3 29 -37
49 -42 59 -26 54 8 -3 29 -24 47 -49z m2164 19 c-7 -7 -12 -8 -12 -2 0 14 12
26 19 19 2 -3 -1 -11 -7 -17z m-2193 -201 c47 -78 91 -148 98 -155 7 -7 13
-17 13 -22 0 -13 92 -164 102 -168 4 -2 8 -8 8 -14 0 -10 39 -78 122 -210 26
-42 48 -80 48 -83 0 -6 40 -66 51 -75 3 -3 20 -26 37 -52 18 -25 38 -52 44
-60 7 -7 24 -30 38 -50 14 -21 28 -38 33 -38 4 0 -9 23 -28 50 -19 28 -52 74
-72 103 -20 28 -61 88 -90 132 -29 44 -57 85 -61 90 -5 6 -25 42 -47 80 -21
39 -45 80 -53 93 -8 12 -13 25 -10 27 5 5 208 -292 236 -345 7 -13 16 -27 20
-30 4 -3 32 -43 62 -90 30 -47 58 -86 63 -88 4 -2 7 -8 7 -14 0 -11 45 -72 78
-106 33 -34 26 -60 -8 -29 -8 6 -7 3 3 -9 19 -23 22 -44 7 -44 -8 0 -30 28
-75 99 -5 8 -14 20 -20 27 -5 6 -16 20 -23 30 -7 11 -48 71 -92 134 -43 63
-82 120 -87 125 -25 31 -153 227 -153 235 0 6 -3 10 -8 10 -4 0 -23 28 -42 61
-19 34 -44 78 -56 98 -226 392 -274 477 -274 490 0 9 10 -1 23 -22 12 -20 60
-101 106 -180z m1961 179 c0 -3 -4 -8 -10 -11 -5 -3 -10 -1 -10 4 0 6 5 11 10
11 6 0 10 -2 10 -4z m-30 -36 c0 -5 -5 -10 -11 -10 -5 0 -7 5 -4 10 3 6 8 10
11 10 2 0 4 -4 4 -10z m-122 -112 c-53 -98 -110 -192 -120 -196 -5 -2 -8 -10
-8 -17 0 -7 -3 -15 -7 -17 -5 -1 -21 -23 -38 -47 -16 -25 -54 -70 -83 -100
-30 -31 -88 -105 -130 -166 -42 -60 -101 -146 -131 -190 -52 -75 -93 -136
-325 -474 -81 -119 -117 -160 -98 -113 14 34 56 102 63 102 4 0 22 26 39 58
18 31 56 91 84 132 59 87 70 108 67 133 -1 10 4 17 14 17 11 0 15 5 11 15 -3
9 0 15 10 15 8 0 12 5 9 10 -3 6 -2 10 4 10 6 0 8 7 5 15 -4 9 0 15 10 15 9 0
16 8 17 18 0 10 3 12 6 5 7 -18 20 -16 26 5 3 9 16 33 28 52 21 32 21 33 3 18
-30 -26 -38 -22 -11 4 12 13 25 22 29 21 12 -4 79 98 72 110 -4 7 -4 9 1 5 8
-7 55 43 55 58 0 5 -7 0 -15 -10 -13 -17 -15 -18 -15 -3 0 15 11 21 32 18 4 0
16 12 27 28 14 20 17 31 9 39 -7 7 -5 10 8 9 14 -2 19 4 18 20 0 12 3 20 7 17
7 -4 16 4 47 41 8 9 11 22 8 30 -3 8 0 14 6 12 14 -3 147 182 148 206 0 9 5
17 10 17 6 0 10 6 10 13 0 8 13 27 30 43 16 16 30 33 30 38 0 11 72 77 78 72
2 -3 -16 -42 -40 -88z m326 36 c-13 -18 -19 -22 -25 -12 -9 15 7 38 27 38 12
0 11 -5 -2 -26z m-286 -46 c-37 -60 -74 -118 -85 -133 -5 -5 -26 -39 -48 -75
-21 -36 -43 -69 -48 -75 -4 -5 -69 -107 -145 -225 -75 -118 -140 -216 -144
-218 -4 -2 -8 -7 -8 -12 0 -5 -50 -86 -111 -182 -62 -95 -119 -186 -128 -201
-9 -16 -30 -48 -47 -70 -17 -23 -34 -52 -38 -64 -4 -14 -15 -23 -27 -23 -10 0
-19 -5 -19 -11 0 -5 5 -7 10 -4 6 3 10 1 10 -4 0 -6 -7 -11 -16 -11 -8 0 -12
-4 -9 -10 3 -5 1 -10 -5 -10 -6 0 -8 -4 -5 -10 3 -5 1 -10 -5 -10 -6 0 -9 -4
-5 -9 3 -5 0 -13 -6 -17 -8 -4 -9 -3 -5 4 4 7 3 12 -3 12 -15 0 -23 -18 -11
-25 14 -9 -12 -46 -29 -40 -9 4 -11 0 -7 -11 3 -9 -3 -29 -15 -45 -11 -16 -16
-29 -10 -29 6 0 11 -5 11 -10 0 -7 -6 -7 -17 -2 -21 11 -43 5 -43 -10 0 -6 6
-6 15 2 8 7 15 9 15 6 0 -12 -47 -76 -52 -71 -2 3 -5 -3 -5 -12 0 -10 4 -20 8
-23 4 -3 -1 -17 -12 -30 -19 -23 -19 -23 -9 -2 12 24 -1 64 -14 43 -4 -6 -3
-11 3 -11 7 0 7 -8 -1 -25 -6 -13 -16 -22 -22 -18 -6 3 -5 0 2 -8 6 -7 12 -20
11 -28 0 -11 -2 -12 -6 -3 -7 17 -16 15 -30 -8 -11 -16 -10 -18 4 -13 11 5 14
3 9 -6 -5 -7 -16 -11 -26 -8 -12 3 -17 0 -13 -8 2 -8 -5 -23 -16 -34 -12 -12
-21 -28 -21 -36 0 -8 -4 -15 -10 -15 -5 0 -10 -7 -10 -16 0 -9 5 -12 12 -8 7
4 8 3 4 -5 -4 -6 -11 -9 -16 -6 -11 7 -33 -22 -25 -35 4 -6 1 -9 -5 -8 -7 2
-14 -8 -16 -21 -5 -30 -23 -62 -24 -42 0 11 -4 9 -15 -5 -8 -10 -14 -23 -15
-29 0 -5 5 -3 11 5 9 13 10 13 6 0 -2 -8 -10 -14 -17 -12 -7 2 -10 -3 -7 -12
8 -19 -3 -28 -19 -15 -11 9 -11 14 1 26 8 8 15 19 15 25 0 6 -13 -6 -30 -27
-16 -21 -30 -43 -30 -49 0 -6 7 -2 16 9 12 17 16 18 24 5 11 -17 3 -33 -12
-24 -8 5 -9 1 -5 -10 4 -10 3 -15 -3 -11 -9 6 -14 -8 -11 -28 0 -4 -4 -6 -10
-5 -6 2 -14 -3 -17 -11 -3 -9 0 -11 8 -6 9 5 11 4 6 -4 -4 -6 -12 -8 -18 -5
-7 5 -9 1 -5 -9 3 -9 3 -16 -1 -16 -19 3 -25 -2 -12 -11 13 -9 13 -10 -1 -10
-8 0 -25 -13 -37 -30 -23 -30 -18 -41 7 -17 11 10 12 9 6 -1 -4 -7 -18 -17
-31 -22 -13 -5 -24 -17 -24 -25 0 -9 -5 -13 -10 -10 -6 4 -7 12 -4 18 4 8 2 7
-7 -1 -12 -11 -12 -14 1 -22 10 -7 11 -13 5 -17 -16 -12 -47 -64 -42 -69 3 -3
21 21 41 53 20 31 36 51 36 43 0 -9 -11 -32 -25 -52 -14 -20 -25 -41 -25 -47
0 -5 -3 -11 -8 -13 -4 -1 -28 -36 -52 -76 -25 -40 -52 -84 -60 -97 -16 -25
-127 -205 -145 -234 -5 -9 -35 -63 -66 -121 -31 -58 -76 -141 -99 -185 -24
-44 -48 -90 -54 -102 -6 -13 -14 -23 -18 -23 -8 0 30 85 55 123 9 15 17 30 17
34 0 5 26 54 59 110 32 55 61 107 65 114 3 8 15 28 25 44 10 17 42 68 69 115
28 47 56 90 61 97 6 7 11 14 11 17 0 5 62 108 70 116 3 3 13 20 23 37 14 25
15 37 7 50 -8 14 -10 14 -9 3 2 -27 -1 -38 -15 -52 -7 -8 -21 -29 -30 -46 -10
-19 -21 -30 -28 -26 -7 4 -8 3 -4 -4 11 -18 -45 -98 -58 -84 -4 3 -4 -2 0 -12
6 -15 4 -17 -6 -11 -10 6 -12 4 -7 -8 4 -11 0 -21 -12 -29 -11 -6 -17 -18 -14
-25 3 -7 -2 -13 -12 -13 -9 0 -13 -4 -10 -10 7 -12 -19 -53 -28 -43 -4 3 -7
-2 -7 -12 0 -10 -7 -27 -17 -37 -18 -20 -33 -45 -60 -98 -9 -19 -26 -45 -37
-57 -11 -13 -16 -23 -11 -23 4 0 -4 -12 -18 -26 -15 -15 -24 -30 -21 -35 3 -5
-2 -12 -10 -15 -9 -3 -16 -10 -16 -15 0 -4 -33 -59 -73 -121 -75 -115 -105
-179 -152 -326 -23 -72 -29 -92 -34 -122 -1 -3 -5 1 -10 8 -8 13 11 92 43 181
18 49 96 213 105 221 3 3 13 19 22 35 48 88 86 155 145 257 37 62 76 131 89
153 12 22 34 63 49 90 27 49 103 170 119 190 4 6 35 53 69 105 35 52 65 97 68
100 3 3 11 17 19 33 8 15 18 27 23 27 4 0 8 4 8 10 0 5 52 87 115 181 63 95
115 176 115 180 0 4 3 9 8 11 5 2 98 139 202 298 48 73 265 399 275 415 8 11
75 112 150 225 74 113 139 212 145 220 33 46 464 699 480 727 11 18 22 33 25
33 2 0 -10 -24 -27 -52z m242 7 c0 -8 -9 -19 -20 -25 -16 -8 -20 -8 -20 4 0
10 6 13 15 10 11 -5 13 -2 9 10 -3 9 -1 16 5 16 6 0 11 -7 11 -15z m-33 -67
c-9 -13 -63 -94 -119 -181 -57 -87 -111 -167 -120 -177 -10 -11 -18 -22 -18
-26 0 -3 -37 -58 -83 -123 -46 -64 -114 -161 -152 -216 -38 -55 -72 -102 -75
-105 -3 -3 -34 -48 -70 -100 -35 -52 -68 -99 -73 -105 -9 -11 -78 -110 -139
-200 -22 -33 -37 -49 -33 -35 10 32 33 78 57 113 11 15 15 27 9 27 -6 0 -8 7
-5 15 4 8 12 15 20 15 8 0 14 5 14 11 0 7 7 17 16 23 14 11 21 30 23 64 1 6 6
12 12 12 6 0 8 -8 5 -17 -5 -16 -4 -15 9 1 8 10 12 23 8 29 -3 6 -1 7 4 4 6
-4 34 24 62 61 60 79 63 83 76 104 14 22 232 330 243 343 8 10 44 62 191 283
37 55 60 99 57 108 -4 9 -2 12 5 8 16 -9 31 18 16 29 -8 6 -7 7 4 4 15 -5 46
29 41 46 -1 4 5 7 14 7 15 0 15 -2 1 -22z m-1856 -5 c13 -16 12 -17 -3 -4 -10
7 -18 15 -18 17 0 8 8 3 21 -13z m-431 -61 c22 -35 40 -65 40 -68 0 -3 9 -19
20 -34 29 -40 81 -142 70 -135 -5 3 -28 37 -51 75 -23 39 -46 67 -51 64 -6 -4
-8 -1 -6 7 3 8 -13 48 -35 89 -47 88 -43 88 13 2z m1775 -107 c-15 -20 -29
-34 -32 -31 -3 3 7 22 22 41 15 20 29 34 32 31 3 -3 -7 -22 -22 -41z m15 -35
c0 -5 -2 -10 -4 -10 -3 0 -8 5 -11 10 -3 6 -1 10 4 10 6 0 11 -4 11 -10z m-62
-37 c-6 -7 -15 -13 -21 -13 -8 0 -8 3 0 11 6 6 9 19 5 27 -5 14 -4 15 10 2 11
-11 13 -19 6 -27z m-79 -85 c-17 -33 -49 -51 -49 -28 0 6 7 10 15 10 8 0 19 9
25 20 6 11 13 20 16 20 2 0 -1 -10 -7 -22z m-1354 -28 c3 -5 1 -10 -4 -10 -6
0 -11 5 -11 10 0 6 2 10 4 10 3 0 8 -4 11 -10z m1335 -20 c0 -5 -5 -10 -11
-10 -5 0 -7 5 -4 10 3 6 8 10 11 10 2 0 4 -4 4 -10z m-30 -26 c0 -8 -4 -14 -9
-14 -6 0 -9 9 -8 19 1 22 17 18 17 -5z m900 12 c0 -3 -4 -8 -10 -11 -5 -3 -10
-1 -10 4 0 6 5 11 10 11 6 0 10 -2 10 -4z m-2274 -49 l15 -32 -25 30 c-26 30
-34 51 -16 40 6 -3 17 -21 26 -38z m2020 -64 c-10 -10 -19 5 -10 18 6 11 8 11
12 0 2 -7 1 -15 -2 -18z m-696 7 c0 -5 -2 -10 -4 -10 -3 0 -8 5 -11 10 -3 6
-1 10 4 10 6 0 11 -4 11 -10z m260 -40 c-12 -16 -24 -30 -26 -30 -3 0 4 14 16
30 12 17 24 30 26 30 3 0 -4 -13 -16 -30z m-265 -10 c3 -5 1 -10 -4 -10 -6 0
-11 5 -11 10 0 6 2 10 4 10 3 0 8 -4 11 -10z m-65 -44 l-21 -21 18 32 c10 18
20 28 22 22 2 -6 -6 -21 -19 -33z m245 -83 c-32 -48 -71 -107 -86 -131 -16
-24 -29 -47 -29 -53 0 -5 -4 -9 -9 -9 -5 0 -14 -13 -21 -30 -7 -16 -15 -30
-19 -30 -3 0 -12 -13 -19 -30 -8 -16 -18 -30 -23 -30 -6 0 -7 6 -3 13 6 9 98
151 154 237 5 8 21 31 34 50 14 19 35 52 46 73 12 22 24 37 27 34 3 -3 -21
-45 -52 -94z m305 63 c0 -2 -7 -7 -16 -10 -8 -3 -12 -2 -9 4 6 10 25 14 25 6z
m-589 -39 c-10 -9 -11 -8 -5 6 3 10 9 15 12 12 3 -3 0 -11 -7 -18z m-1081 3
c0 -5 -2 -10 -4 -10 -3 0 -8 5 -11 10 -3 6 -1 10 4 10 6 0 11 -4 11 -10z
m1600 -60 c0 -5 -2 -10 -4 -10 -3 0 -8 5 -11 10 -3 6 -1 10 4 10 6 0 11 -4 11
-10z m-570 -15 c-7 -9 -15 -13 -17 -11 -7 7 7 26 19 26 6 0 6 -6 -2 -15z m483
-115 c-3 -12 -8 -19 -11 -16 -5 6 5 36 12 36 2 0 2 -9 -1 -20z m-1419 -6 c3
-8 2 -12 -4 -9 -6 3 -10 10 -10 16 0 14 7 11 14 -7z m85 -124 c87 -122 92
-129 139 -188 24 -30 42 -55 40 -57 -7 -7 -181 220 -227 295 -44 73 -26 54 48
-50z m959 50 c-35 -56 -43 -63 -26 -22 10 24 47 72 54 72 2 0 -11 -22 -28 -50z
m152 46 c0 -2 -7 -9 -15 -16 -13 -11 -14 -10 -9 4 5 14 24 23 24 12z m178 -38
c-12 -18 -31 -42 -41 -53 -19 -20 -19 -20 -4 10 15 30 53 75 63 75 3 0 -5 -15
-18 -32z m326 -59 c-12 -13 -20 -16 -22 -9 -3 7 2 16 9 21 25 16 32 9 13 -12z
m-725 -166 c-45 -70 -104 -162 -130 -203 -26 -41 -51 -80 -56 -85 -4 -6 -15
-22 -23 -36 -21 -36 -293 -462 -302 -474 -5 -5 -49 -75 -99 -155 -50 -80 -104
-164 -120 -188 -16 -23 -29 -47 -29 -51 0 -5 -3 -11 -7 -13 -9 -3 -63 -84 -63
-93 0 -3 -5 -11 -10 -18 -23 -28 -80 -117 -80 -126 0 -5 -4 -11 -8 -13 -9 -4
-265 -409 -314 -498 -136 -246 -198 -399 -232 -565 -26 -128 -26 -207 -2 -342
15 -81 16 -92 7 -97 -5 -3 -12 6 -16 22 -5 15 -9 32 -11 37 -32 110 -19 382
23 495 3 8 7 20 8 25 21 88 115 295 202 445 77 132 78 133 86 144 4 6 41 63
82 126 40 63 78 120 84 127 6 7 11 15 11 18 0 3 26 44 58 93 72 107 213 325
227 349 6 9 14 22 18 27 5 6 33 49 62 96 30 47 59 92 64 100 29 43 135 207
191 295 36 55 67 102 70 105 4 3 23 32 43 65 59 95 59 95 115 177 28 43 52 80
52 83 0 3 20 34 44 69 24 35 45 68 47 72 10 23 83 124 86 120 3 -3 -32 -62
-78 -133z m684 112 c-3 -9 -8 -14 -10 -11 -3 3 -2 9 2 15 9 16 15 13 8 -4z
m-637 -213 c-18 -16 -18 -16 -6 6 6 13 14 21 18 18 3 -4 -2 -14 -12 -24z
m-731 -12 c10 -11 16 -20 13 -20 -3 0 -13 9 -23 20 -10 11 -16 20 -13 20 3 0
13 -9 23 -20z m545 16 c0 -3 -4 -8 -10 -11 -5 -3 -10 -1 -10 4 0 6 5 11 10 11
6 0 10 -2 10 -4z m-215 -76 c-4 -21 -93 -191 -105 -200 -3 -3 -9 -12 -12 -20
-15 -38 -467 -709 -505 -750 -32 -34 -29 -17 5 33 16 23 45 69 64 102 19 33
100 166 178 295 79 129 151 249 161 266 11 17 39 52 64 79 25 27 45 55 45 61
0 7 3 14 8 16 4 2 16 19 26 38 17 31 68 100 73 100 1 0 0 -9 -2 -20z m845 -1
c-7 -11 -14 -18 -17 -15 -3 3 0 12 7 21 18 21 23 19 10 -6z m-564 -56 c-27
-39 -32 -53 -18 -53 4 0 18 20 32 45 13 24 26 42 28 40 4 -4 -14 -36 -73 -130
-17 -27 -59 -95 -93 -150 -34 -55 -65 -105 -69 -111 -4 -5 -14 -20 -20 -32 -7
-12 -19 -32 -25 -44 -7 -12 -17 -27 -21 -32 -10 -13 -175 -282 -194 -316 -8
-14 -26 -44 -41 -67 -55 -87 -228 -368 -251 -407 -12 -23 -29 -48 -37 -57 -8
-8 -14 -18 -14 -21 0 -4 -34 -59 -75 -125 -41 -65 -90 -145 -110 -178 -82
-138 -141 -226 -148 -219 -3 4 -6 -2 -5 -12 0 -11 -13 -48 -31 -84 -17 -36
-31 -56 -31 -46 0 18 -2 18 -25 -4 -14 -13 -25 -29 -25 -37 0 -7 -5 -12 -12
-11 -7 2 -13 -4 -13 -12 -2 -25 -71 -161 -78 -154 -3 4 -3 12 0 18 4 6 9 20
10 31 5 31 74 174 91 188 13 10 14 9 2 -13 -7 -14 -8 -20 -2 -15 19 18 201
385 192 385 -6 0 -10 -5 -10 -12 0 -6 -3 -8 -7 -5 -7 7 27 80 40 85 4 2 7 9 7
15 0 7 8 21 16 32 16 19 16 19 12 -7 -3 -16 -2 -28 1 -28 3 0 28 37 55 81 53
89 199 317 216 336 5 7 10 14 10 17 0 18 124 194 133 189 6 -3 7 -1 3 5 -10
16 12 54 26 46 7 -4 8 -3 4 4 -9 14 18 55 28 44 4 -4 7 -2 6 3 -5 24 2 39 33
68 17 17 26 27 20 23 -9 -5 -11 -2 -7 8 3 9 10 14 14 11 4 -3 16 8 25 23 l18
27 -23 -20 -24 -20 20 26 c10 15 22 25 26 23 4 -3 12 4 17 15 14 26 14 34 -1
25 -8 -4 -10 -3 -5 2 5 5 14 9 20 9 5 0 12 6 15 14 3 9 0 11 -9 6 -8 -5 -11
-4 -6 1 5 5 14 9 20 9 5 0 12 6 15 14 3 9 0 11 -8 6 -9 -5 -11 -4 -6 4 4 6 11
9 16 6 5 -3 16 5 24 17 19 26 21 42 5 32 -6 -3 -3 5 6 20 9 14 21 24 25 21 5
-3 23 19 42 47 43 69 46 77 18 53 l-24 -20 20 26 c10 15 25 24 31 22 7 -3 13
0 13 6 0 6 -5 11 -10 11 -6 0 7 27 27 60 21 33 41 60 46 60 4 0 -8 -23 -28
-51 -19 -28 -35 -56 -35 -62 0 -16 10 -3 68 88 28 44 61 92 72 108 12 15 20
32 18 39 -3 7 -22 -16 -44 -50 -21 -34 -42 -62 -46 -62 -5 0 11 28 35 63 23
34 55 84 71 110 15 27 30 46 33 44 3 -3 -7 -23 -21 -44z m-209 -75 c-3 -8 -6
-5 -6 6 -1 11 2 17 5 13 3 -3 4 -12 1 -19z m-297 -78 c0 -5 -5 -10 -11 -10 -5
0 -7 5 -4 10 3 6 8 10 11 10 2 0 4 -4 4 -10z m226 -26 c-4 -9 -9 -15 -11 -12
-3 3 -3 13 1 22 4 9 9 15 11 12 3 -3 3 -13 -1 -22z m-311 -124 c3 -5 1 -10 -4
-10 -6 0 -11 5 -11 10 0 6 2 10 4 10 3 0 8 -4 11 -10z m-33 -37 c-6 -3 -10 -9
-6 -14 3 -5 0 -9 -5 -9 -6 0 -11 4 -11 8 0 12 23 32 29 25 3 -3 0 -8 -7 -10z
m211 -43 c-5 -19 -23 -29 -23 -12 0 7 20 32 26 32 1 0 0 -9 -3 -20z m157 -14
c0 -2 -8 -10 -17 -17 -16 -13 -17 -12 -4 4 13 16 21 21 21 13z m-405 -16 c3
-5 1 -10 -4 -10 -6 0 -11 5 -11 10 0 6 2 10 4 10 3 0 8 -4 11 -10z m1072 -22
c15 -7 34 -18 41 -25 14 -14 16 -33 3 -33 -10 0 -111 61 -111 66 0 9 41 3 67
-8z m-87 -90 c0 -6 -7 -7 -16 -4 -9 3 -18 6 -20 6 -3 0 -3 4 1 10 7 11 35 2
35 -12z m180 -46 c-7 -3 -19 3 -28 13 -16 15 -15 16 12 4 15 -7 23 -15 16 -17z
m-1319 -59 c-12 -20 -14 -14 -5 12 4 9 9 14 11 11 3 -2 0 -13 -6 -23z m-74
-128 c0 -8 -4 -12 -9 -9 -5 3 -6 10 -3 15 9 13 12 11 12 -6z m-30 -45 c-17
-28 -27 -25 -14 4 7 13 15 22 19 20 4 -3 2 -14 -5 -24z m-27 -54 c0 -2 -7 -9
-15 -16 -13 -11 -14 -10 -9 4 5 14 24 23 24 12z m733 -176 c-19 -32 -37 -41
-26 -12 9 21 25 41 36 42 5 0 0 -13 -10 -30z m-886 -198 c-7 -15 -38 -71 -69
-124 -32 -52 -58 -100 -58 -106 0 -6 -3 -12 -7 -14 -5 -1 -21 -30 -38 -63 -16
-33 -32 -62 -35 -65 -3 -3 -25 -43 -49 -90 -153 -298 -174 -341 -202 -425 -13
-38 -14 -39 -17 -12 -2 16 5 54 14 85 21 67 155 336 202 405 17 26 32 50 32
52 0 2 45 76 100 165 55 90 100 164 100 167 0 6 32 53 36 53 2 0 -2 -13 -9
-28z m283 18 c0 -5 -5 -10 -11 -10 -5 0 -7 5 -4 10 3 6 8 10 11 10 2 0 4 -4 4
-10z m-30 -50 c0 -5 -5 -10 -11 -10 -5 0 -7 5 -4 10 3 6 8 10 11 10 2 0 4 -4
4 -10z m435 -89 c3 -5 2 -12 -3 -15 -5 -3 -9 1 -9 9 0 17 3 19 12 6z m-555
-125 c0 -3 -4 -8 -10 -11 -5 -3 -10 -1 -10 4 0 6 5 11 10 11 6 0 10 -2 10 -4z
m-110 -180 c0 -3 -4 -8 -10 -11 -5 -3 -10 -1 -10 4 0 6 5 11 10 11 6 0 10 -2
10 -4z m-170 -40 c0 -2 -8 -10 -17 -17 -16 -13 -17 -12 -4 4 13 16 21 21 21
13z m-71 -198 c-13 -26 -24 -37 -27 -29 -2 7 2 17 9 22 8 5 10 9 5 9 -5 0 -1
9 9 20 27 30 28 25 4 -22z m131 22 c0 -5 -2 -10 -4 -10 -3 0 -8 5 -11 10 -3 6
-1 10 4 10 6 0 11 -4 11 -10z m-28 -42 c-7 -7 -12 -8 -12 -2 0 14 12 26 19 19
2 -3 -1 -11 -7 -17z m-160 -10 c-7 -7 -12 -8 -12 -2 0 14 12 26 19 19 2 -3 -1
-11 -7 -17z m-25 -40 c-3 -8 -6 -5 -6 6 -1 11 2 17 5 13 3 -3 4 -12 1 -19z
m33 -53 c-12 -25 -26 -45 -31 -45 -5 0 -9 2 -9 5 0 8 24 60 39 84 24 38 25 5
1 -44z m95 -223 c-7 -29 -13 -55 -13 -57 -1 -3 -5 -29 -11 -58 -15 -75 -22
-118 -26 -155 -10 -91 -31 -123 -37 -54 -6 72 3 163 15 155 9 -5 9 -3 1 8 -6
8 -10 23 -8 34 2 11 5 33 6 48 1 16 5 30 9 32 3 3 4 -17 2 -43 l-3 -47 23 65
c44 118 49 131 53 128 2 -2 -3 -27 -11 -56z m-213 -267 c3 -14 1 -28 -3 -31
-5 -3 -9 9 -9 25 0 38 6 40 12 6z m248 -25 c0 -5 -5 -10 -11 -10 -5 0 -7 5 -4
10 3 6 8 10 11 10 2 0 4 -4 4 -10z m-25 -60 c1 -3 7 -23 13 -45 6 -22 14 -65
17 -95 5 -51 4 -53 -9 -30 -26 46 -59 186 -48 204 4 7 24 -18 27 -34z m-100
-75 c15 -118 15 -112 -1 -91 -8 12 -14 43 -14 80 0 66 6 71 15 11z m-145 -7
c0 -20 -18 -5 -23 19 -5 26 -4 26 9 8 8 -10 14 -22 14 -27z m14 -73 c8 -48 -8
-27 -19 25 -5 23 -4 32 3 25 5 -5 12 -28 16 -50z"/>
<path d="M4550 5499 c0 -5 5 -7 10 -4 6 3 10 8 10 11 0 2 -4 4 -10 4 -5 0 -10
-5 -10 -11z"/>
<path d="M4590 5363 c0 -6 8 -17 18 -24 16 -13 16 -13 2 6 -8 11 -16 22 -17
24 -2 2 -3 0 -3 -6z"/>
<path d="M4836 5177 c3 -10 9 -15 12 -12 3 3 0 11 -7 18 -10 9 -11 8 -5 -6z"/>
<path d="M4840 5106 c0 -2 8 -10 18 -17 15 -13 16 -12 3 4 -13 16 -21 21 -21
13z"/>
<path d="M4828 5031 c20 -32 55 -88 77 -125 53 -87 115 -173 115 -158 0 35
-119 236 -180 305 -49 55 -55 45 -12 -22z"/>
<path d="M5130 4440 c6 -11 13 -20 16 -20 2 0 0 9 -6 20 -6 11 -13 20 -16 20
-2 0 0 -9 6 -20z"/>
<path d="M5447 4023 c-4 -3 -7 -11 -7 -17 0 -6 5 -5 12 2 6 6 9 14 7 17 -3 3
-9 2 -12 -2z"/>
<path d="M5093 3480 c-18 -28 -16 -44 3 -26 8 9 14 23 12 31 -2 13 -6 12 -15
-5z"/>
<path d="M4936 3233 c-6 -14 -5 -15 5 -6 7 7 10 15 7 18 -3 3 -9 -2 -12 -12z"/>
<path d="M4900 3190 c0 -5 5 -10 11 -10 5 0 7 5 4 10 -3 6 -8 10 -11 10 -2 0
-4 -4 -4 -10z"/>
<path d="M4775 2980 c-3 -5 -1 -10 4 -10 6 0 11 5 11 10 0 6 -2 10 -4 10 -3 0
-8 -4 -11 -10z"/>
<path d="M5346 3523 c-6 -14 -5 -15 5 -6 7 7 10 15 7 18 -3 3 -9 -2 -12 -12z"/>
<path d="M5150 3209 c0 -5 5 -7 10 -4 6 3 10 8 10 11 0 2 -4 4 -10 4 -5 0 -10
-5 -10 -11z"/>
<path d="M5030 3022 c0 -5 -9 -18 -20 -30 -12 -12 -17 -22 -12 -22 9 0 33 25
46 48 4 6 2 12 -3 12 -6 0 -11 -4 -11 -8z"/>
<path d="M4885 2800 c-3 -5 -2 -10 4 -10 5 0 13 5 16 10 3 6 2 10 -4 10 -5 0
-13 -4 -16 -10z"/>
<path d="M4761 2584 c-6 -15 -9 -29 -7 -32 3 -2 10 8 16 23 14 36 7 43 -9 9z"/>
<path d="M4710 2499 c0 -5 5 -7 10 -4 6 3 10 8 10 11 0 2 -4 4 -10 4 -5 0 -10
-5 -10 -11z"/>
<path d="M4682 2444 c-7 -14 -8 -23 -2 -19 15 9 32 45 22 45 -5 0 -14 -12 -20
-26z"/>
<path d="M4567 2246 c-4 -10 -1 -13 8 -9 8 3 12 9 9 14 -7 12 -11 11 -17 -5z"/>
<path d="M4546 2204 c-9 -24 -2 -26 12 -4 7 11 8 20 3 20 -5 0 -12 -7 -15 -16z"/>
<path d="M4520 2160 c-9 -6 -10 -10 -3 -10 6 0 15 5 18 10 8 12 4 12 -15 0z"/>
<path d="M4486 2093 c-6 -14 -5 -15 5 -6 7 7 10 15 7 18 -3 3 -9 -2 -12 -12z"/>
<path d="M4461 2044 c0 -11 3 -14 6 -6 3 7 2 16 -1 19 -3 4 -6 -2 -5 -13z"/>
<path d="M6580 4870 c-8 -15 -8 -20 3 -20 7 0 13 9 14 20 1 11 0 20 -2 20 -2
0 -9 -9 -15 -20z"/>
<path d="M6545 4810 c3 -5 8 -10 11 -10 2 0 4 5 4 10 0 6 -5 10 -11 10 -5 0
-7 -4 -4 -10z"/>
<path d="M6520 4779 c0 -5 5 -7 10 -4 6 3 10 8 10 11 0 2 -4 4 -10 4 -5 0 -10
-5 -10 -11z"/>
<path d="M6500 4754 c0 -8 5 -12 10 -9 6 4 8 11 5 16 -9 14 -15 11 -15 -7z"/>
<path d="M6442 4728 c-15 -15 -15 -28 0 -28 6 0 8 3 5 7 -4 3 -2 12 4 20 14
16 7 17 -9 1z"/>
<path d="M6535 4710 c-10 -11 -14 -20 -9 -20 5 0 15 9 22 20 7 11 11 20 9 20
-2 0 -12 -9 -22 -20z"/>
<path d="M4000 4640 c0 -5 5 -10 11 -10 5 0 7 5 4 10 -3 6 -8 10 -11 10 -2 0
-4 -4 -4 -10z"/>
<path d="M4128 4613 c28 -29 52 -38 52 -21 0 16 -23 34 -52 41 l-27 7 27 -27z"/>
<path d="M6476 4625 c-3 -8 -1 -15 4 -15 6 0 10 7 10 15 0 8 -2 15 -4 15 -2 0
-6 -7 -10 -15z"/>
<path d="M3950 4611 c0 -6 3 -10 8 -9 12 3 86 -14 107 -24 l20 -10 -20 20
c-22 22 -115 40 -115 23z"/>
<path d="M6262 4588 c-14 -14 -16 -42 -3 -34 7 5 23 46 17 46 -1 0 -7 -5 -14
-12z"/>
<path d="M6440 4569 c0 -5 5 -7 10 -4 6 3 10 8 10 11 0 2 -4 4 -10 4 -5 0 -10
-5 -10 -11z"/>
<path d="M4390 4550 c0 -5 5 -10 11 -10 5 0 7 5 4 10 -3 6 -8 10 -11 10 -2 0
-4 -4 -4 -10z"/>
<path d="M6420 4544 c0 -8 5 -12 10 -9 6 4 8 11 5 16 -9 14 -15 11 -15 -7z"/>
<path d="M6180 4480 c0 -5 5 -10 10 -10 6 0 10 5 10 10 0 6 -4 10 -10 10 -5 0
-10 -4 -10 -10z"/>
<path d="M6160 4445 c-8 -9 -8 -15 -2 -15 12 0 26 19 19 26 -2 2 -10 -2 -17
-11z"/>
<path d="M3548 4383 c6 -2 18 -2 25 0 6 3 1 5 -13 5 -14 0 -19 -2 -12 -5z"/>
<path d="M6170 4375 c0 -8 2 -15 4 -15 2 0 6 7 10 15 3 8 1 15 -4 15 -6 0 -10
-7 -10 -15z"/>
<path d="M6145 4369 c-4 -6 -5 -12 -2 -15 2 -3 7 2 10 11 7 17 1 20 -8 4z"/>
<path d="M3628 4343 c12 -2 30 -2 40 0 9 3 -1 5 -23 4 -22 0 -30 -2 -17 -4z"/>
<path d="M6142 4328 c-7 -7 -12 -19 -11 -27 0 -10 4 -7 10 7 5 14 13 20 20 16
8 -4 9 -3 5 4 -9 15 -9 15 -24 0z"/>
<path d="M6105 4280 c-3 -5 -1 -10 4 -10 6 0 11 5 11 10 0 6 -2 10 -4 10 -3 0
-8 -4 -11 -10z"/>
<path d="M6083 4245 c-3 -9 -3 -18 -1 -21 3 -3 8 4 11 16 6 23 -1 27 -10 5z"/>
<path d="M6013 4134 c-15 -16 -16 -24 -4 -24 8 0 24 30 19 35 -2 2 -9 -3 -15
-11z"/>
<path d="M5810 4000 c0 -5 5 -10 10 -10 6 0 10 5 10 10 0 6 -4 10 -10 10 -5 0
-10 -4 -10 -10z"/>
<path d="M5827 3918 c-10 -11 -17 -22 -15 -24 3 -2 15 7 28 21 13 14 19 25 14
24 -5 0 -17 -10 -27 -21z"/>
<path d="M5717 3853 c-4 -3 -7 -11 -7 -17 0 -6 5 -5 12 2 6 6 9 14 7 17 -3 3
-9 2 -12 -2z"/>
<path d="M5690 3809 c0 -5 5 -7 10 -4 6 3 10 8 10 11 0 2 -4 4 -10 4 -5 0 -10
-5 -10 -11z"/>
<path d="M5783 3785 c-12 -13 -19 -26 -16 -29 3 -3 15 6 25 20 26 32 20 38 -9
9z"/>
<path d="M5652 3740 c-12 -32 -11 -34 4 -19 9 9 14 25 12 35 -3 14 -7 10 -16
-16z"/>
<path d="M5531 3615 c-50 -76 -91 -141 -91 -145 0 -5 -3 -10 -7 -12 -13 -5
-55 -88 -46 -88 5 0 24 25 42 56 25 41 37 52 43 42 7 -9 8 -7 5 8 -2 11 2 29
10 40 14 18 15 18 8 -3 -4 -14 -2 -23 4 -23 12 0 12 0 15 45 2 24 41 95 83
151 18 24 34 56 30 61 -3 2 -46 -57 -96 -132z"/>
<path d="M5586 3645 c-3 -8 -1 -15 3 -15 5 0 11 7 15 15 3 8 1 15 -3 15 -5 0
-11 -7 -15 -15z"/>
<path d="M5422 3380 c-9 -16 -20 -30 -24 -30 -5 0 -8 -5 -8 -12 0 -6 -11 -26
-25 -44 -14 -18 -25 -37 -25 -42 0 -6 -3 -12 -7 -14 -9 -3 -53 -69 -73 -108
-12 -25 -12 -25 6 -5 16 17 165 233 188 273 4 6 2 12 -4 12 -6 0 -19 -13 -28
-30z"/>
<path d="M5337 3310 c-9 -15 -17 -31 -17 -35 0 -11 30 16 41 36 16 30 -6 30
-24 -1z"/>
<path d="M5272 3214 c-29 -35 -47 -74 -34 -74 10 0 74 101 69 106 -3 3 -18
-12 -35 -32z"/>
<path d="M5541 3164 c0 -11 3 -14 6 -6 3 7 2 16 -1 19 -3 4 -6 -2 -5 -13z"/>
<path d="M5202 3098 c-15 -15 -16 -42 -2 -33 6 4 8 10 5 15 -3 5 3 13 12 19
10 6 13 11 8 11 -6 0 -16 -5 -23 -12z"/>
<path d="M5434 3072 c-27 -36 -36 -52 -31 -52 8 0 59 71 55 76 -3 2 -13 -9
-24 -24z"/>
<path d="M5150 3000 c0 -5 5 -10 10 -10 6 0 10 5 10 10 0 6 -4 10 -10 10 -5 0
-10 -4 -10 -10z"/>
<path d="M5380 2985 c-7 -9 -11 -17 -9 -20 3 -2 10 5 17 15 14 24 10 26 -8 5z"/>
<path d="M5132 2934 c-15 -25 -35 -55 -44 -66 -10 -12 -18 -25 -18 -29 0 -4
-28 -53 -62 -109 -44 -72 -64 -97 -71 -88 -6 9 -7 7 -3 -5 4 -12 -7 -41 -30
-78 -21 -33 -34 -62 -31 -65 10 -10 135 125 183 198 54 81 100 185 108 246 3
23 3 42 0 42 -2 0 -17 -21 -32 -46z"/>
<path d="M5310 2880 c-8 -5 -12 -11 -9 -14 2 -3 11 -1 19 4 8 5 12 11 9 14 -2
3 -11 1 -19 -4z"/>
<path d="M5285 2839 c-4 -6 -5 -12 -2 -15 2 -3 7 2 10 11 7 17 1 20 -8 4z"/>
<path d="M5260 2795 c0 -8 2 -15 4 -15 2 0 6 7 10 15 3 8 1 15 -4 15 -6 0 -10
-7 -10 -15z"/>
<path d="M5217 2750 c-27 -31 -67 -113 -67 -134 1 -6 10 0 21 14 25 30 82 140
76 146 -3 3 -16 -9 -30 -26z"/>
<path d="M4970 2725 c-11 -13 -10 -14 4 -9 9 3 16 10 16 15 0 13 -6 11 -20 -6z"/>
<path d="M2486 2534 c-5 -14 -4 -15 9 -4 17 14 19 20 6 20 -5 0 -12 -7 -15
-16z"/>
<path d="M4840 2500 c-6 -11 -8 -20 -6 -20 3 0 10 9 16 20 6 11 8 20 6 20 -3
0 -10 -9 -16 -20z"/>
<path d="M4806 2392 c-22 -37 -46 -76 -54 -87 -14 -20 -14 -19 -9 3 3 12 1 19
-4 16 -5 -3 -8 -15 -7 -27 3 -22 -68 -175 -87 -189 -5 -4 -7 -10 -3 -13 6 -6
88 108 88 122 0 3 8 17 19 31 35 51 111 201 104 205 -5 3 -26 -25 -47 -61z"/>
<path d="M4772 2405 c4 -4 3 -14 -4 -22 -6 -7 -8 -16 -5 -19 3 -3 10 3 16 15
8 15 8 22 -1 27 -7 4 -10 4 -6 -1z"/>
<path d="M4864 2318 c-4 -7 -14 -24 -22 -38 -13 -22 -12 -22 11 4 15 16 27 33
27 38 0 12 -8 10 -16 -4z"/>
<path d="M4810 2220 c-9 -6 -10 -10 -3 -10 6 0 15 5 18 10 8 12 4 12 -15 0z"/>
<path d="M2375 2210 c3 -5 8 -10 11 -10 2 0 4 5 4 10 0 6 -5 10 -11 10 -5 0
-7 -4 -4 -10z"/>
<path d="M4636 2145 c-3 -8 -1 -15 4 -15 6 0 10 7 10 15 0 8 -2 15 -4 15 -2 0
-6 -7 -10 -15z"/>
<path d="M2301 1994 c0 -11 3 -14 6 -6 3 7 2 16 -1 19 -3 4 -6 -2 -5 -13z"/>
<path d="M4696 1904 c-9 -20 -15 -38 -13 -41 3 -2 13 14 24 37 11 22 17 40 14
40 -4 0 -15 -16 -25 -36z"/>
<path d="M4523 1898 c-4 -7 -6 -22 -4 -32 2 -13 -2 -17 -12 -13 -10 4 -15 -1
-15 -16 1 -12 -4 -44 -10 -72 -6 -27 -9 -52 -7 -54 2 -2 7 10 10 25 3 16 12
43 20 59 26 53 44 115 35 115 -5 0 -12 -6 -17 -12z"/>
<path d="M4621 1724 c0 -11 3 -14 6 -6 3 7 2 16 -1 19 -3 4 -6 -2 -5 -13z"/>
<path d="M4601 1684 c0 -11 3 -14 6 -6 3 7 2 16 -1 19 -3 4 -6 -2 -5 -13z"/>
<path d="M2090 1340 c0 -5 5 -10 10 -10 6 0 10 5 10 10 0 6 -4 10 -10 10 -5 0
-10 -4 -10 -10z"/>
<path d="M2092 1290 c0 -19 2 -27 5 -17 2 9 2 25 0 35 -3 9 -5 1 -5 -18z"/>
<path d="M2090 1241 c0 -6 4 -12 8 -15 5 -3 9 1 9 9 0 8 -4 15 -9 15 -4 0 -8
-4 -8 -9z"/>
<path d="M2098 1175 c2 -19 6 -35 8 -35 2 0 4 16 4 35 0 19 -4 35 -8 35 -4 0
-6 -16 -4 -35z"/>
<path d="M2110 1097 c0 -9 4 -18 9 -21 5 -4 8 1 7 9 -3 21 -16 31 -16 12z"/>
<path d="M2250 971 c0 -5 5 -13 10 -16 6 -3 10 -2 10 4 0 5 -4 13 -10 16 -5 3
-10 2 -10 -4z"/>
<path d="M2308 865 c2 -14 8 -25 12 -25 10 0 1 38 -10 45 -4 2 -5 -7 -2 -20z"/>
<path d="M2279 837 l3 -42 -21 19 c-30 27 -34 16 -16 -47 17 -58 38 -86 50
-67 3 5 3 10 -1 10 -3 0 0 7 7 16 15 18 14 73 -1 88 -6 6 -10 20 -10 32 0 13
-3 25 -8 28 -4 2 -6 -14 -3 -37z"/>
</g>
</svg>
